G04 #@! TF.FileFunction,Copper,L2,Bot,Signal*
%FSLAX46Y46*%
G04 Gerber Fmt 4.6, Leading zero omitted, Abs format (unit mm)*
G04 Created by KiCad (PCBNEW 4.0.7) date 02/23/18 23:24:38*
%MOMM*%
%LPD*%
G01*
G04 APERTURE LIST*
%ADD10C,0.100000*%
%ADD11C,0.150000*%
%ADD12R,1.800000X1.800000*%
%ADD13O,1.800000X1.800000*%
%ADD14R,2.600000X2.600000*%
%ADD15C,2.600000*%
%ADD16C,1.600000*%
%ADD17O,1.600000X1.600000*%
%ADD18C,0.400000*%
%ADD19C,0.500000*%
G04 APERTURE END LIST*
D10*
D11*
X125000000Y-75000000D02*
X125000000Y-30000000D01*
X170000000Y-75000000D02*
X125000000Y-75000000D01*
X170000000Y-30000000D02*
X170000000Y-75000000D01*
X125000000Y-30000000D02*
X170000000Y-30000000D01*
D12*
X132000000Y-54500000D03*
D13*
X132000000Y-57040000D03*
X132000000Y-59580000D03*
D14*
X135000000Y-35500000D03*
D15*
X130000000Y-35500000D03*
D14*
X130000000Y-69500000D03*
D15*
X135000000Y-69500000D03*
D14*
X155000000Y-35500000D03*
D15*
X150000000Y-35500000D03*
D14*
X150000000Y-69500000D03*
D15*
X155000000Y-69500000D03*
D14*
X164400000Y-57500000D03*
D15*
X164400000Y-52500000D03*
D12*
X151500000Y-54460000D03*
D13*
X151500000Y-57000000D03*
X151500000Y-59540000D03*
D16*
X127375000Y-48000000D03*
D17*
X137535000Y-48000000D03*
D16*
X137500000Y-44000000D03*
D17*
X127340000Y-44000000D03*
D16*
X147500000Y-48000000D03*
D17*
X157660000Y-48000000D03*
D16*
X157760000Y-44000000D03*
D17*
X147600000Y-44000000D03*
D18*
X130000000Y-35500000D02*
X130000000Y-45375000D01*
X130000000Y-45375000D02*
X127375000Y-48000000D01*
X147500000Y-48000000D02*
X150000000Y-45500000D01*
X150000000Y-45500000D02*
X150000000Y-35500000D01*
X137535000Y-51725000D02*
X134760000Y-54500000D01*
X134760000Y-54500000D02*
X132000000Y-54500000D01*
X137500000Y-44000000D02*
X137500000Y-47965000D01*
X137500000Y-47965000D02*
X137535000Y-48000000D01*
X137535000Y-48000000D02*
X137535000Y-51725000D01*
X157660000Y-48000000D02*
X157660000Y-44100000D01*
X157660000Y-44100000D02*
X157760000Y-44000000D01*
X157660000Y-52560000D02*
X157660000Y-48000000D01*
X157660000Y-52560000D02*
X155760000Y-54460000D01*
X155760000Y-54460000D02*
X151500000Y-54460000D01*
D19*
G36*
X169167000Y-74167000D02*
X125833000Y-74167000D01*
X125833000Y-68200000D01*
X127927150Y-68200000D01*
X127927150Y-70800000D01*
X127980005Y-71080898D01*
X128146015Y-71338886D01*
X128399318Y-71511960D01*
X128700000Y-71572850D01*
X131300000Y-71572850D01*
X131580898Y-71519995D01*
X131838886Y-71353985D01*
X132011960Y-71100682D01*
X132029333Y-71014889D01*
X133838664Y-71014889D01*
X133977678Y-71332430D01*
X134756738Y-71584170D01*
X135572833Y-71518614D01*
X136022322Y-71332430D01*
X136161336Y-71014889D01*
X135000000Y-69853553D01*
X133838664Y-71014889D01*
X132029333Y-71014889D01*
X132072850Y-70800000D01*
X132072850Y-69256738D01*
X132915830Y-69256738D01*
X132981386Y-70072833D01*
X133167570Y-70522322D01*
X133485111Y-70661336D01*
X134646447Y-69500000D01*
X135353553Y-69500000D01*
X136514889Y-70661336D01*
X136832430Y-70522322D01*
X137084170Y-69743262D01*
X137018614Y-68927167D01*
X136832430Y-68477678D01*
X136514889Y-68338664D01*
X135353553Y-69500000D01*
X134646447Y-69500000D01*
X133485111Y-68338664D01*
X133167570Y-68477678D01*
X132915830Y-69256738D01*
X132072850Y-69256738D01*
X132072850Y-68200000D01*
X132032416Y-67985111D01*
X133838664Y-67985111D01*
X135000000Y-69146447D01*
X135946447Y-68200000D01*
X147927150Y-68200000D01*
X147927150Y-70800000D01*
X147980005Y-71080898D01*
X148146015Y-71338886D01*
X148399318Y-71511960D01*
X148700000Y-71572850D01*
X151300000Y-71572850D01*
X151580898Y-71519995D01*
X151838886Y-71353985D01*
X152011960Y-71100682D01*
X152029333Y-71014889D01*
X153838664Y-71014889D01*
X153977678Y-71332430D01*
X154756738Y-71584170D01*
X155572833Y-71518614D01*
X156022322Y-71332430D01*
X156161336Y-71014889D01*
X155000000Y-69853553D01*
X153838664Y-71014889D01*
X152029333Y-71014889D01*
X152072850Y-70800000D01*
X152072850Y-69256738D01*
X152915830Y-69256738D01*
X152981386Y-70072833D01*
X153167570Y-70522322D01*
X153485111Y-70661336D01*
X154646447Y-69500000D01*
X155353553Y-69500000D01*
X156514889Y-70661336D01*
X156832430Y-70522322D01*
X157084170Y-69743262D01*
X157018614Y-68927167D01*
X156832430Y-68477678D01*
X156514889Y-68338664D01*
X155353553Y-69500000D01*
X154646447Y-69500000D01*
X153485111Y-68338664D01*
X153167570Y-68477678D01*
X152915830Y-69256738D01*
X152072850Y-69256738D01*
X152072850Y-68200000D01*
X152032416Y-67985111D01*
X153838664Y-67985111D01*
X155000000Y-69146447D01*
X156161336Y-67985111D01*
X156022322Y-67667570D01*
X155243262Y-67415830D01*
X154427167Y-67481386D01*
X153977678Y-67667570D01*
X153838664Y-67985111D01*
X152032416Y-67985111D01*
X152019995Y-67919102D01*
X151853985Y-67661114D01*
X151600682Y-67488040D01*
X151300000Y-67427150D01*
X148700000Y-67427150D01*
X148419102Y-67480005D01*
X148161114Y-67646015D01*
X147988040Y-67899318D01*
X147927150Y-68200000D01*
X135946447Y-68200000D01*
X136161336Y-67985111D01*
X136022322Y-67667570D01*
X135243262Y-67415830D01*
X134427167Y-67481386D01*
X133977678Y-67667570D01*
X133838664Y-67985111D01*
X132032416Y-67985111D01*
X132019995Y-67919102D01*
X131853985Y-67661114D01*
X131600682Y-67488040D01*
X131300000Y-67427150D01*
X128700000Y-67427150D01*
X128419102Y-67480005D01*
X128161114Y-67646015D01*
X127988040Y-67899318D01*
X127927150Y-68200000D01*
X125833000Y-68200000D01*
X125833000Y-53600000D01*
X130327150Y-53600000D01*
X130327150Y-55400000D01*
X130380005Y-55680898D01*
X130546015Y-55938886D01*
X130691756Y-56038466D01*
X130468208Y-56373029D01*
X130342000Y-57007518D01*
X130342000Y-57072482D01*
X130468208Y-57706971D01*
X130827617Y-58244865D01*
X130925098Y-58310000D01*
X130827617Y-58375135D01*
X130468208Y-58913029D01*
X130342000Y-59547518D01*
X130342000Y-59612482D01*
X130468208Y-60246971D01*
X130827617Y-60784865D01*
X131365511Y-61144274D01*
X132000000Y-61270482D01*
X132634489Y-61144274D01*
X133172383Y-60784865D01*
X133531792Y-60246971D01*
X133658000Y-59612482D01*
X133658000Y-59547518D01*
X133531792Y-58913029D01*
X133172383Y-58375135D01*
X133074902Y-58310000D01*
X133172383Y-58244865D01*
X133531792Y-57706971D01*
X133658000Y-57072482D01*
X133658000Y-57007518D01*
X133531792Y-56373029D01*
X133308050Y-56038175D01*
X133438886Y-55953985D01*
X133611960Y-55700682D01*
X133661105Y-55458000D01*
X134760000Y-55458000D01*
X135126611Y-55385077D01*
X135437408Y-55177408D01*
X137054816Y-53560000D01*
X149827150Y-53560000D01*
X149827150Y-55360000D01*
X149880005Y-55640898D01*
X150046015Y-55898886D01*
X150191756Y-55998466D01*
X149968208Y-56333029D01*
X149842000Y-56967518D01*
X149842000Y-57032482D01*
X149968208Y-57666971D01*
X150327617Y-58204865D01*
X150425098Y-58270000D01*
X150327617Y-58335135D01*
X149968208Y-58873029D01*
X149842000Y-59507518D01*
X149842000Y-59572482D01*
X149968208Y-60206971D01*
X150327617Y-60744865D01*
X150865511Y-61104274D01*
X151500000Y-61230482D01*
X152134489Y-61104274D01*
X152672383Y-60744865D01*
X153031792Y-60206971D01*
X153158000Y-59572482D01*
X153158000Y-59507518D01*
X153031792Y-58873029D01*
X152672383Y-58335135D01*
X152574902Y-58270000D01*
X152672383Y-58204865D01*
X152849694Y-57939500D01*
X162342000Y-57939500D01*
X162342000Y-58950776D01*
X162457399Y-59229373D01*
X162670628Y-59442602D01*
X162949225Y-59558000D01*
X163960500Y-59558000D01*
X164150000Y-59368500D01*
X164150000Y-57750000D01*
X164650000Y-57750000D01*
X164650000Y-59368500D01*
X164839500Y-59558000D01*
X165850775Y-59558000D01*
X166129372Y-59442602D01*
X166342601Y-59229373D01*
X166458000Y-58950776D01*
X166458000Y-57939500D01*
X166268500Y-57750000D01*
X164650000Y-57750000D01*
X164150000Y-57750000D01*
X162531500Y-57750000D01*
X162342000Y-57939500D01*
X152849694Y-57939500D01*
X153031792Y-57666971D01*
X153158000Y-57032482D01*
X153158000Y-56967518D01*
X153031792Y-56333029D01*
X152842160Y-56049224D01*
X162342000Y-56049224D01*
X162342000Y-57060500D01*
X162531500Y-57250000D01*
X164150000Y-57250000D01*
X164150000Y-55631500D01*
X164650000Y-55631500D01*
X164650000Y-57250000D01*
X166268500Y-57250000D01*
X166458000Y-57060500D01*
X166458000Y-56049224D01*
X166342601Y-55770627D01*
X166129372Y-55557398D01*
X165850775Y-55442000D01*
X164839500Y-55442000D01*
X164650000Y-55631500D01*
X164150000Y-55631500D01*
X163960500Y-55442000D01*
X162949225Y-55442000D01*
X162670628Y-55557398D01*
X162457399Y-55770627D01*
X162342000Y-56049224D01*
X152842160Y-56049224D01*
X152808050Y-55998175D01*
X152938886Y-55913985D01*
X153111960Y-55660682D01*
X153161105Y-55418000D01*
X155760000Y-55418000D01*
X156126611Y-55345077D01*
X156437408Y-55137408D01*
X158337408Y-53237408D01*
X158545077Y-52926611D01*
X158548865Y-52907566D01*
X162341643Y-52907566D01*
X162654295Y-53664241D01*
X163232714Y-54243671D01*
X163988842Y-54557642D01*
X164807566Y-54558357D01*
X165564241Y-54245705D01*
X166143671Y-53667286D01*
X166457642Y-52911158D01*
X166458357Y-52092434D01*
X166145705Y-51335759D01*
X165567286Y-50756329D01*
X164811158Y-50442358D01*
X163992434Y-50441643D01*
X163235759Y-50754295D01*
X162656329Y-51332714D01*
X162342358Y-52088842D01*
X162341643Y-52907566D01*
X158548865Y-52907566D01*
X158618000Y-52560000D01*
X158618000Y-49218066D01*
X158792195Y-49101672D01*
X159129927Y-48596221D01*
X159248523Y-48000000D01*
X159129927Y-47403779D01*
X158792195Y-46898328D01*
X158618000Y-46781934D01*
X158618000Y-45331240D01*
X158641383Y-45321578D01*
X159080038Y-44883688D01*
X159317729Y-44311265D01*
X159318270Y-43691454D01*
X159081578Y-43118617D01*
X158643688Y-42679962D01*
X158071265Y-42442271D01*
X157451454Y-42441730D01*
X156878617Y-42678422D01*
X156439962Y-43116312D01*
X156202271Y-43688735D01*
X156201730Y-44308546D01*
X156438422Y-44881383D01*
X156702000Y-45145421D01*
X156702000Y-46781934D01*
X156527805Y-46898328D01*
X156190073Y-47403779D01*
X156071477Y-48000000D01*
X156190073Y-48596221D01*
X156527805Y-49101672D01*
X156702000Y-49218066D01*
X156702000Y-52163184D01*
X155363184Y-53502000D01*
X153161936Y-53502000D01*
X153119995Y-53279102D01*
X152953985Y-53021114D01*
X152700682Y-52848040D01*
X152400000Y-52787150D01*
X150600000Y-52787150D01*
X150319102Y-52840005D01*
X150061114Y-53006015D01*
X149888040Y-53259318D01*
X149827150Y-53560000D01*
X137054816Y-53560000D01*
X138212409Y-52402408D01*
X138420077Y-52091611D01*
X138493000Y-51725000D01*
X138493000Y-49218066D01*
X138667195Y-49101672D01*
X139004927Y-48596221D01*
X139062149Y-48308546D01*
X145941730Y-48308546D01*
X146178422Y-48881383D01*
X146616312Y-49320038D01*
X147188735Y-49557729D01*
X147808546Y-49558270D01*
X148381383Y-49321578D01*
X148820038Y-48883688D01*
X149057729Y-48311265D01*
X149058178Y-47796638D01*
X150677408Y-46177408D01*
X150885077Y-45866611D01*
X150958000Y-45500000D01*
X150958000Y-37330922D01*
X151164241Y-37245705D01*
X151743671Y-36667286D01*
X152057642Y-35911158D01*
X152058357Y-35092434D01*
X151745705Y-34335759D01*
X151610183Y-34200000D01*
X152927150Y-34200000D01*
X152927150Y-36800000D01*
X152980005Y-37080898D01*
X153146015Y-37338886D01*
X153399318Y-37511960D01*
X153700000Y-37572850D01*
X156300000Y-37572850D01*
X156580898Y-37519995D01*
X156838886Y-37353985D01*
X157011960Y-37100682D01*
X157072850Y-36800000D01*
X157072850Y-34200000D01*
X157019995Y-33919102D01*
X156853985Y-33661114D01*
X156600682Y-33488040D01*
X156300000Y-33427150D01*
X153700000Y-33427150D01*
X153419102Y-33480005D01*
X153161114Y-33646015D01*
X152988040Y-33899318D01*
X152927150Y-34200000D01*
X151610183Y-34200000D01*
X151167286Y-33756329D01*
X150411158Y-33442358D01*
X149592434Y-33441643D01*
X148835759Y-33754295D01*
X148256329Y-34332714D01*
X147942358Y-35088842D01*
X147941643Y-35907566D01*
X148254295Y-36664241D01*
X148832714Y-37243671D01*
X149042000Y-37330574D01*
X149042000Y-43361983D01*
X148732195Y-42898328D01*
X148226744Y-42560596D01*
X147630523Y-42442000D01*
X147569477Y-42442000D01*
X146973256Y-42560596D01*
X146467805Y-42898328D01*
X146130073Y-43403779D01*
X146011477Y-44000000D01*
X146130073Y-44596221D01*
X146467805Y-45101672D01*
X146973256Y-45439404D01*
X147569477Y-45558000D01*
X147630523Y-45558000D01*
X148226744Y-45439404D01*
X148732195Y-45101672D01*
X149042000Y-44638017D01*
X149042000Y-45103184D01*
X147703007Y-46442177D01*
X147191454Y-46441730D01*
X146618617Y-46678422D01*
X146179962Y-47116312D01*
X145942271Y-47688735D01*
X145941730Y-48308546D01*
X139062149Y-48308546D01*
X139123523Y-48000000D01*
X139004927Y-47403779D01*
X138667195Y-46898328D01*
X138458000Y-46758548D01*
X138458000Y-45245095D01*
X138820038Y-44883688D01*
X139057729Y-44311265D01*
X139058270Y-43691454D01*
X138821578Y-43118617D01*
X138383688Y-42679962D01*
X137811265Y-42442271D01*
X137191454Y-42441730D01*
X136618617Y-42678422D01*
X136179962Y-43116312D01*
X135942271Y-43688735D01*
X135941730Y-44308546D01*
X136178422Y-44881383D01*
X136542000Y-45245596D01*
X136542000Y-46805321D01*
X136402805Y-46898328D01*
X136065073Y-47403779D01*
X135946477Y-48000000D01*
X136065073Y-48596221D01*
X136402805Y-49101672D01*
X136577000Y-49218066D01*
X136577000Y-51328183D01*
X134363184Y-53542000D01*
X133661936Y-53542000D01*
X133619995Y-53319102D01*
X133453985Y-53061114D01*
X133200682Y-52888040D01*
X132900000Y-52827150D01*
X131100000Y-52827150D01*
X130819102Y-52880005D01*
X130561114Y-53046015D01*
X130388040Y-53299318D01*
X130327150Y-53600000D01*
X125833000Y-53600000D01*
X125833000Y-48347922D01*
X126053422Y-48881383D01*
X126491312Y-49320038D01*
X127063735Y-49557729D01*
X127683546Y-49558270D01*
X128256383Y-49321578D01*
X128695038Y-48883688D01*
X128932729Y-48311265D01*
X128933178Y-47796638D01*
X130677409Y-46052408D01*
X130885077Y-45741611D01*
X130958000Y-45375000D01*
X130958000Y-37330922D01*
X131164241Y-37245705D01*
X131743671Y-36667286D01*
X132057642Y-35911158D01*
X132058357Y-35092434D01*
X131745705Y-34335759D01*
X131610183Y-34200000D01*
X132927150Y-34200000D01*
X132927150Y-36800000D01*
X132980005Y-37080898D01*
X133146015Y-37338886D01*
X133399318Y-37511960D01*
X133700000Y-37572850D01*
X136300000Y-37572850D01*
X136580898Y-37519995D01*
X136838886Y-37353985D01*
X137011960Y-37100682D01*
X137072850Y-36800000D01*
X137072850Y-34200000D01*
X137019995Y-33919102D01*
X136853985Y-33661114D01*
X136600682Y-33488040D01*
X136300000Y-33427150D01*
X133700000Y-33427150D01*
X133419102Y-33480005D01*
X133161114Y-33646015D01*
X132988040Y-33899318D01*
X132927150Y-34200000D01*
X131610183Y-34200000D01*
X131167286Y-33756329D01*
X130411158Y-33442358D01*
X129592434Y-33441643D01*
X128835759Y-33754295D01*
X128256329Y-34332714D01*
X127942358Y-35088842D01*
X127941643Y-35907566D01*
X128254295Y-36664241D01*
X128832714Y-37243671D01*
X129042000Y-37330574D01*
X129042000Y-44978183D01*
X127578007Y-46442177D01*
X127066454Y-46441730D01*
X126493617Y-46678422D01*
X126054962Y-47116312D01*
X125833000Y-47650855D01*
X125833000Y-44409843D01*
X125870073Y-44596221D01*
X126207805Y-45101672D01*
X126713256Y-45439404D01*
X127309477Y-45558000D01*
X127370523Y-45558000D01*
X127966744Y-45439404D01*
X128472195Y-45101672D01*
X128809927Y-44596221D01*
X128928523Y-44000000D01*
X128809927Y-43403779D01*
X128472195Y-42898328D01*
X127966744Y-42560596D01*
X127370523Y-42442000D01*
X127309477Y-42442000D01*
X126713256Y-42560596D01*
X126207805Y-42898328D01*
X125870073Y-43403779D01*
X125833000Y-43590157D01*
X125833000Y-30833000D01*
X169167000Y-30833000D01*
X169167000Y-74167000D01*
X169167000Y-74167000D01*
G37*
X169167000Y-74167000D02*
X125833000Y-74167000D01*
X125833000Y-68200000D01*
X127927150Y-68200000D01*
X127927150Y-70800000D01*
X127980005Y-71080898D01*
X128146015Y-71338886D01*
X128399318Y-71511960D01*
X128700000Y-71572850D01*
X131300000Y-71572850D01*
X131580898Y-71519995D01*
X131838886Y-71353985D01*
X132011960Y-71100682D01*
X132029333Y-71014889D01*
X133838664Y-71014889D01*
X133977678Y-71332430D01*
X134756738Y-71584170D01*
X135572833Y-71518614D01*
X136022322Y-71332430D01*
X136161336Y-71014889D01*
X135000000Y-69853553D01*
X133838664Y-71014889D01*
X132029333Y-71014889D01*
X132072850Y-70800000D01*
X132072850Y-69256738D01*
X132915830Y-69256738D01*
X132981386Y-70072833D01*
X133167570Y-70522322D01*
X133485111Y-70661336D01*
X134646447Y-69500000D01*
X135353553Y-69500000D01*
X136514889Y-70661336D01*
X136832430Y-70522322D01*
X137084170Y-69743262D01*
X137018614Y-68927167D01*
X136832430Y-68477678D01*
X136514889Y-68338664D01*
X135353553Y-69500000D01*
X134646447Y-69500000D01*
X133485111Y-68338664D01*
X133167570Y-68477678D01*
X132915830Y-69256738D01*
X132072850Y-69256738D01*
X132072850Y-68200000D01*
X132032416Y-67985111D01*
X133838664Y-67985111D01*
X135000000Y-69146447D01*
X135946447Y-68200000D01*
X147927150Y-68200000D01*
X147927150Y-70800000D01*
X147980005Y-71080898D01*
X148146015Y-71338886D01*
X148399318Y-71511960D01*
X148700000Y-71572850D01*
X151300000Y-71572850D01*
X151580898Y-71519995D01*
X151838886Y-71353985D01*
X152011960Y-71100682D01*
X152029333Y-71014889D01*
X153838664Y-71014889D01*
X153977678Y-71332430D01*
X154756738Y-71584170D01*
X155572833Y-71518614D01*
X156022322Y-71332430D01*
X156161336Y-71014889D01*
X155000000Y-69853553D01*
X153838664Y-71014889D01*
X152029333Y-71014889D01*
X152072850Y-70800000D01*
X152072850Y-69256738D01*
X152915830Y-69256738D01*
X152981386Y-70072833D01*
X153167570Y-70522322D01*
X153485111Y-70661336D01*
X154646447Y-69500000D01*
X155353553Y-69500000D01*
X156514889Y-70661336D01*
X156832430Y-70522322D01*
X157084170Y-69743262D01*
X157018614Y-68927167D01*
X156832430Y-68477678D01*
X156514889Y-68338664D01*
X155353553Y-69500000D01*
X154646447Y-69500000D01*
X153485111Y-68338664D01*
X153167570Y-68477678D01*
X152915830Y-69256738D01*
X152072850Y-69256738D01*
X152072850Y-68200000D01*
X152032416Y-67985111D01*
X153838664Y-67985111D01*
X155000000Y-69146447D01*
X156161336Y-67985111D01*
X156022322Y-67667570D01*
X155243262Y-67415830D01*
X154427167Y-67481386D01*
X153977678Y-67667570D01*
X153838664Y-67985111D01*
X152032416Y-67985111D01*
X152019995Y-67919102D01*
X151853985Y-67661114D01*
X151600682Y-67488040D01*
X151300000Y-67427150D01*
X148700000Y-67427150D01*
X148419102Y-67480005D01*
X148161114Y-67646015D01*
X147988040Y-67899318D01*
X147927150Y-68200000D01*
X135946447Y-68200000D01*
X136161336Y-67985111D01*
X136022322Y-67667570D01*
X135243262Y-67415830D01*
X134427167Y-67481386D01*
X133977678Y-67667570D01*
X133838664Y-67985111D01*
X132032416Y-67985111D01*
X132019995Y-67919102D01*
X131853985Y-67661114D01*
X131600682Y-67488040D01*
X131300000Y-67427150D01*
X128700000Y-67427150D01*
X128419102Y-67480005D01*
X128161114Y-67646015D01*
X127988040Y-67899318D01*
X127927150Y-68200000D01*
X125833000Y-68200000D01*
X125833000Y-53600000D01*
X130327150Y-53600000D01*
X130327150Y-55400000D01*
X130380005Y-55680898D01*
X130546015Y-55938886D01*
X130691756Y-56038466D01*
X130468208Y-56373029D01*
X130342000Y-57007518D01*
X130342000Y-57072482D01*
X130468208Y-57706971D01*
X130827617Y-58244865D01*
X130925098Y-58310000D01*
X130827617Y-58375135D01*
X130468208Y-58913029D01*
X130342000Y-59547518D01*
X130342000Y-59612482D01*
X130468208Y-60246971D01*
X130827617Y-60784865D01*
X131365511Y-61144274D01*
X132000000Y-61270482D01*
X132634489Y-61144274D01*
X133172383Y-60784865D01*
X133531792Y-60246971D01*
X133658000Y-59612482D01*
X133658000Y-59547518D01*
X133531792Y-58913029D01*
X133172383Y-58375135D01*
X133074902Y-58310000D01*
X133172383Y-58244865D01*
X133531792Y-57706971D01*
X133658000Y-57072482D01*
X133658000Y-57007518D01*
X133531792Y-56373029D01*
X133308050Y-56038175D01*
X133438886Y-55953985D01*
X133611960Y-55700682D01*
X133661105Y-55458000D01*
X134760000Y-55458000D01*
X135126611Y-55385077D01*
X135437408Y-55177408D01*
X137054816Y-53560000D01*
X149827150Y-53560000D01*
X149827150Y-55360000D01*
X149880005Y-55640898D01*
X150046015Y-55898886D01*
X150191756Y-55998466D01*
X149968208Y-56333029D01*
X149842000Y-56967518D01*
X149842000Y-57032482D01*
X149968208Y-57666971D01*
X150327617Y-58204865D01*
X150425098Y-58270000D01*
X150327617Y-58335135D01*
X149968208Y-58873029D01*
X149842000Y-59507518D01*
X149842000Y-59572482D01*
X149968208Y-60206971D01*
X150327617Y-60744865D01*
X150865511Y-61104274D01*
X151500000Y-61230482D01*
X152134489Y-61104274D01*
X152672383Y-60744865D01*
X153031792Y-60206971D01*
X153158000Y-59572482D01*
X153158000Y-59507518D01*
X153031792Y-58873029D01*
X152672383Y-58335135D01*
X152574902Y-58270000D01*
X152672383Y-58204865D01*
X152849694Y-57939500D01*
X162342000Y-57939500D01*
X162342000Y-58950776D01*
X162457399Y-59229373D01*
X162670628Y-59442602D01*
X162949225Y-59558000D01*
X163960500Y-59558000D01*
X164150000Y-59368500D01*
X164150000Y-57750000D01*
X164650000Y-57750000D01*
X164650000Y-59368500D01*
X164839500Y-59558000D01*
X165850775Y-59558000D01*
X166129372Y-59442602D01*
X166342601Y-59229373D01*
X166458000Y-58950776D01*
X166458000Y-57939500D01*
X166268500Y-57750000D01*
X164650000Y-57750000D01*
X164150000Y-57750000D01*
X162531500Y-57750000D01*
X162342000Y-57939500D01*
X152849694Y-57939500D01*
X153031792Y-57666971D01*
X153158000Y-57032482D01*
X153158000Y-56967518D01*
X153031792Y-56333029D01*
X152842160Y-56049224D01*
X162342000Y-56049224D01*
X162342000Y-57060500D01*
X162531500Y-57250000D01*
X164150000Y-57250000D01*
X164150000Y-55631500D01*
X164650000Y-55631500D01*
X164650000Y-57250000D01*
X166268500Y-57250000D01*
X166458000Y-57060500D01*
X166458000Y-56049224D01*
X166342601Y-55770627D01*
X166129372Y-55557398D01*
X165850775Y-55442000D01*
X164839500Y-55442000D01*
X164650000Y-55631500D01*
X164150000Y-55631500D01*
X163960500Y-55442000D01*
X162949225Y-55442000D01*
X162670628Y-55557398D01*
X162457399Y-55770627D01*
X162342000Y-56049224D01*
X152842160Y-56049224D01*
X152808050Y-55998175D01*
X152938886Y-55913985D01*
X153111960Y-55660682D01*
X153161105Y-55418000D01*
X155760000Y-55418000D01*
X156126611Y-55345077D01*
X156437408Y-55137408D01*
X158337408Y-53237408D01*
X158545077Y-52926611D01*
X158548865Y-52907566D01*
X162341643Y-52907566D01*
X162654295Y-53664241D01*
X163232714Y-54243671D01*
X163988842Y-54557642D01*
X164807566Y-54558357D01*
X165564241Y-54245705D01*
X166143671Y-53667286D01*
X166457642Y-52911158D01*
X166458357Y-52092434D01*
X166145705Y-51335759D01*
X165567286Y-50756329D01*
X164811158Y-50442358D01*
X163992434Y-50441643D01*
X163235759Y-50754295D01*
X162656329Y-51332714D01*
X162342358Y-52088842D01*
X162341643Y-52907566D01*
X158548865Y-52907566D01*
X158618000Y-52560000D01*
X158618000Y-49218066D01*
X158792195Y-49101672D01*
X159129927Y-48596221D01*
X159248523Y-48000000D01*
X159129927Y-47403779D01*
X158792195Y-46898328D01*
X158618000Y-46781934D01*
X158618000Y-45331240D01*
X158641383Y-45321578D01*
X159080038Y-44883688D01*
X159317729Y-44311265D01*
X159318270Y-43691454D01*
X159081578Y-43118617D01*
X158643688Y-42679962D01*
X158071265Y-42442271D01*
X157451454Y-42441730D01*
X156878617Y-42678422D01*
X156439962Y-43116312D01*
X156202271Y-43688735D01*
X156201730Y-44308546D01*
X156438422Y-44881383D01*
X156702000Y-45145421D01*
X156702000Y-46781934D01*
X156527805Y-46898328D01*
X156190073Y-47403779D01*
X156071477Y-48000000D01*
X156190073Y-48596221D01*
X156527805Y-49101672D01*
X156702000Y-49218066D01*
X156702000Y-52163184D01*
X155363184Y-53502000D01*
X153161936Y-53502000D01*
X153119995Y-53279102D01*
X152953985Y-53021114D01*
X152700682Y-52848040D01*
X152400000Y-52787150D01*
X150600000Y-52787150D01*
X150319102Y-52840005D01*
X150061114Y-53006015D01*
X149888040Y-53259318D01*
X149827150Y-53560000D01*
X137054816Y-53560000D01*
X138212409Y-52402408D01*
X138420077Y-52091611D01*
X138493000Y-51725000D01*
X138493000Y-49218066D01*
X138667195Y-49101672D01*
X139004927Y-48596221D01*
X139062149Y-48308546D01*
X145941730Y-48308546D01*
X146178422Y-48881383D01*
X146616312Y-49320038D01*
X147188735Y-49557729D01*
X147808546Y-49558270D01*
X148381383Y-49321578D01*
X148820038Y-48883688D01*
X149057729Y-48311265D01*
X149058178Y-47796638D01*
X150677408Y-46177408D01*
X150885077Y-45866611D01*
X150958000Y-45500000D01*
X150958000Y-37330922D01*
X151164241Y-37245705D01*
X151743671Y-36667286D01*
X152057642Y-35911158D01*
X152058357Y-35092434D01*
X151745705Y-34335759D01*
X151610183Y-34200000D01*
X152927150Y-34200000D01*
X152927150Y-36800000D01*
X152980005Y-37080898D01*
X153146015Y-37338886D01*
X153399318Y-37511960D01*
X153700000Y-37572850D01*
X156300000Y-37572850D01*
X156580898Y-37519995D01*
X156838886Y-37353985D01*
X157011960Y-37100682D01*
X157072850Y-36800000D01*
X157072850Y-34200000D01*
X157019995Y-33919102D01*
X156853985Y-33661114D01*
X156600682Y-33488040D01*
X156300000Y-33427150D01*
X153700000Y-33427150D01*
X153419102Y-33480005D01*
X153161114Y-33646015D01*
X152988040Y-33899318D01*
X152927150Y-34200000D01*
X151610183Y-34200000D01*
X151167286Y-33756329D01*
X150411158Y-33442358D01*
X149592434Y-33441643D01*
X148835759Y-33754295D01*
X148256329Y-34332714D01*
X147942358Y-35088842D01*
X147941643Y-35907566D01*
X148254295Y-36664241D01*
X148832714Y-37243671D01*
X149042000Y-37330574D01*
X149042000Y-43361983D01*
X148732195Y-42898328D01*
X148226744Y-42560596D01*
X147630523Y-42442000D01*
X147569477Y-42442000D01*
X146973256Y-42560596D01*
X146467805Y-42898328D01*
X146130073Y-43403779D01*
X146011477Y-44000000D01*
X146130073Y-44596221D01*
X146467805Y-45101672D01*
X146973256Y-45439404D01*
X147569477Y-45558000D01*
X147630523Y-45558000D01*
X148226744Y-45439404D01*
X148732195Y-45101672D01*
X149042000Y-44638017D01*
X149042000Y-45103184D01*
X147703007Y-46442177D01*
X147191454Y-46441730D01*
X146618617Y-46678422D01*
X146179962Y-47116312D01*
X145942271Y-47688735D01*
X145941730Y-48308546D01*
X139062149Y-48308546D01*
X139123523Y-48000000D01*
X139004927Y-47403779D01*
X138667195Y-46898328D01*
X138458000Y-46758548D01*
X138458000Y-45245095D01*
X138820038Y-44883688D01*
X139057729Y-44311265D01*
X139058270Y-43691454D01*
X138821578Y-43118617D01*
X138383688Y-42679962D01*
X137811265Y-42442271D01*
X137191454Y-42441730D01*
X136618617Y-42678422D01*
X136179962Y-43116312D01*
X135942271Y-43688735D01*
X135941730Y-44308546D01*
X136178422Y-44881383D01*
X136542000Y-45245596D01*
X136542000Y-46805321D01*
X136402805Y-46898328D01*
X136065073Y-47403779D01*
X135946477Y-48000000D01*
X136065073Y-48596221D01*
X136402805Y-49101672D01*
X136577000Y-49218066D01*
X136577000Y-51328183D01*
X134363184Y-53542000D01*
X133661936Y-53542000D01*
X133619995Y-53319102D01*
X133453985Y-53061114D01*
X133200682Y-52888040D01*
X132900000Y-52827150D01*
X131100000Y-52827150D01*
X130819102Y-52880005D01*
X130561114Y-53046015D01*
X130388040Y-53299318D01*
X130327150Y-53600000D01*
X125833000Y-53600000D01*
X125833000Y-48347922D01*
X126053422Y-48881383D01*
X126491312Y-49320038D01*
X127063735Y-49557729D01*
X127683546Y-49558270D01*
X128256383Y-49321578D01*
X128695038Y-48883688D01*
X128932729Y-48311265D01*
X128933178Y-47796638D01*
X130677409Y-46052408D01*
X130885077Y-45741611D01*
X130958000Y-45375000D01*
X130958000Y-37330922D01*
X131164241Y-37245705D01*
X131743671Y-36667286D01*
X132057642Y-35911158D01*
X132058357Y-35092434D01*
X131745705Y-34335759D01*
X131610183Y-34200000D01*
X132927150Y-34200000D01*
X132927150Y-36800000D01*
X132980005Y-37080898D01*
X133146015Y-37338886D01*
X133399318Y-37511960D01*
X133700000Y-37572850D01*
X136300000Y-37572850D01*
X136580898Y-37519995D01*
X136838886Y-37353985D01*
X137011960Y-37100682D01*
X137072850Y-36800000D01*
X137072850Y-34200000D01*
X137019995Y-33919102D01*
X136853985Y-33661114D01*
X136600682Y-33488040D01*
X136300000Y-33427150D01*
X133700000Y-33427150D01*
X133419102Y-33480005D01*
X133161114Y-33646015D01*
X132988040Y-33899318D01*
X132927150Y-34200000D01*
X131610183Y-34200000D01*
X131167286Y-33756329D01*
X130411158Y-33442358D01*
X129592434Y-33441643D01*
X128835759Y-33754295D01*
X128256329Y-34332714D01*
X127942358Y-35088842D01*
X127941643Y-35907566D01*
X128254295Y-36664241D01*
X128832714Y-37243671D01*
X129042000Y-37330574D01*
X129042000Y-44978183D01*
X127578007Y-46442177D01*
X127066454Y-46441730D01*
X126493617Y-46678422D01*
X126054962Y-47116312D01*
X125833000Y-47650855D01*
X125833000Y-44409843D01*
X125870073Y-44596221D01*
X126207805Y-45101672D01*
X126713256Y-45439404D01*
X127309477Y-45558000D01*
X127370523Y-45558000D01*
X127966744Y-45439404D01*
X128472195Y-45101672D01*
X128809927Y-44596221D01*
X128928523Y-44000000D01*
X128809927Y-43403779D01*
X128472195Y-42898328D01*
X127966744Y-42560596D01*
X127370523Y-42442000D01*
X127309477Y-42442000D01*
X126713256Y-42560596D01*
X126207805Y-42898328D01*
X125870073Y-43403779D01*
X125833000Y-43590157D01*
X125833000Y-30833000D01*
X169167000Y-30833000D01*
X169167000Y-74167000D01*
M02*
