G04 #@! TF.FileFunction,Copper,L1,Top,Signal*
%FSLAX46Y46*%
G04 Gerber Fmt 4.6, Leading zero omitted, Abs format (unit mm)*
G04 Created by KiCad (PCBNEW 4.0.7) date 02/23/18 23:24:38*
%MOMM*%
%LPD*%
G01*
G04 APERTURE LIST*
%ADD10C,0.100000*%
%ADD11C,0.150000*%
%ADD12R,1.800000X1.800000*%
%ADD13O,1.800000X1.800000*%
%ADD14R,2.600000X2.600000*%
%ADD15C,2.600000*%
%ADD16C,1.600000*%
%ADD17O,1.600000X1.600000*%
%ADD18C,0.500000*%
%ADD19C,0.300000*%
G04 APERTURE END LIST*
D10*
D11*
X125000000Y-75000000D02*
X125000000Y-30000000D01*
X170000000Y-75000000D02*
X125000000Y-75000000D01*
X170000000Y-30000000D02*
X170000000Y-75000000D01*
X125000000Y-30000000D02*
X170000000Y-30000000D01*
D12*
X132000000Y-54500000D03*
D13*
X132000000Y-57040000D03*
X132000000Y-59580000D03*
D14*
X135000000Y-35500000D03*
D15*
X130000000Y-35500000D03*
D14*
X130000000Y-69500000D03*
D15*
X135000000Y-69500000D03*
D14*
X155000000Y-35500000D03*
D15*
X150000000Y-35500000D03*
D14*
X150000000Y-69500000D03*
D15*
X155000000Y-69500000D03*
D14*
X164400000Y-57500000D03*
D15*
X164400000Y-52500000D03*
D12*
X151500000Y-54460000D03*
D13*
X151500000Y-57000000D03*
X151500000Y-59540000D03*
D16*
X127375000Y-48000000D03*
D17*
X137535000Y-48000000D03*
D16*
X137500000Y-44000000D03*
D17*
X127340000Y-44000000D03*
D16*
X147500000Y-48000000D03*
D17*
X157660000Y-48000000D03*
D16*
X157760000Y-44000000D03*
D17*
X147600000Y-44000000D03*
D18*
G36*
X169167000Y-74167000D02*
X151258000Y-74167000D01*
X151258000Y-71572850D01*
X151300000Y-71572850D01*
X151580898Y-71519995D01*
X151838886Y-71353985D01*
X152011960Y-71100682D01*
X152072850Y-70800000D01*
X152072850Y-69907566D01*
X152941643Y-69907566D01*
X153254295Y-70664241D01*
X153832714Y-71243671D01*
X154588842Y-71557642D01*
X155407566Y-71558357D01*
X156164241Y-71245705D01*
X156743671Y-70667286D01*
X157057642Y-69911158D01*
X157058357Y-69092434D01*
X156745705Y-68335759D01*
X156167286Y-67756329D01*
X155411158Y-67442358D01*
X154592434Y-67441643D01*
X153835759Y-67754295D01*
X153256329Y-68332714D01*
X152942358Y-69088842D01*
X152941643Y-69907566D01*
X152072850Y-69907566D01*
X152072850Y-68200000D01*
X152019995Y-67919102D01*
X151853985Y-67661114D01*
X151600682Y-67488040D01*
X151300000Y-67427150D01*
X151258000Y-67427150D01*
X151258000Y-59790000D01*
X151750000Y-59790000D01*
X151750000Y-60987063D01*
X152003325Y-61119756D01*
X152261162Y-61012975D01*
X152766905Y-60609567D01*
X153079773Y-60043328D01*
X152949561Y-59790000D01*
X151750000Y-59790000D01*
X151258000Y-59790000D01*
X151258000Y-59270000D01*
X151750000Y-59270000D01*
X151750000Y-59290000D01*
X152949561Y-59290000D01*
X152966009Y-59258000D01*
X158000000Y-59258000D01*
X158275501Y-59206161D01*
X158528531Y-59043340D01*
X158698280Y-58794904D01*
X158758000Y-58500000D01*
X158758000Y-56200000D01*
X162327150Y-56200000D01*
X162327150Y-58800000D01*
X162380005Y-59080898D01*
X162546015Y-59338886D01*
X162799318Y-59511960D01*
X163100000Y-59572850D01*
X165700000Y-59572850D01*
X165980898Y-59519995D01*
X166238886Y-59353985D01*
X166411960Y-59100682D01*
X166472850Y-58800000D01*
X166472850Y-56200000D01*
X166419995Y-55919102D01*
X166253985Y-55661114D01*
X166000682Y-55488040D01*
X165700000Y-55427150D01*
X163100000Y-55427150D01*
X162819102Y-55480005D01*
X162561114Y-55646015D01*
X162388040Y-55899318D01*
X162327150Y-56200000D01*
X158758000Y-56200000D01*
X158758000Y-54014889D01*
X163238664Y-54014889D01*
X163377678Y-54332430D01*
X164156738Y-54584170D01*
X164972833Y-54518614D01*
X165422322Y-54332430D01*
X165561336Y-54014889D01*
X164400000Y-52853553D01*
X163238664Y-54014889D01*
X158758000Y-54014889D01*
X158758000Y-52256738D01*
X162315830Y-52256738D01*
X162381386Y-53072833D01*
X162567570Y-53522322D01*
X162885111Y-53661336D01*
X164046447Y-52500000D01*
X164753553Y-52500000D01*
X165914889Y-53661336D01*
X166232430Y-53522322D01*
X166484170Y-52743262D01*
X166418614Y-51927167D01*
X166232430Y-51477678D01*
X165914889Y-51338664D01*
X164753553Y-52500000D01*
X164046447Y-52500000D01*
X162885111Y-51338664D01*
X162567570Y-51477678D01*
X162315830Y-52256738D01*
X158758000Y-52256738D01*
X158758000Y-51500000D01*
X158706161Y-51224499D01*
X158552119Y-50985111D01*
X163238664Y-50985111D01*
X164400000Y-52146447D01*
X165561336Y-50985111D01*
X165422322Y-50667570D01*
X164643262Y-50415830D01*
X163827167Y-50481386D01*
X163377678Y-50667570D01*
X163238664Y-50985111D01*
X158552119Y-50985111D01*
X158543340Y-50971469D01*
X158294904Y-50801720D01*
X158000000Y-50742000D01*
X150846906Y-50742000D01*
X150600000Y-50692000D01*
X145900000Y-50692000D01*
X145628610Y-50742249D01*
X145374637Y-50903596D01*
X145203446Y-51151041D01*
X145142013Y-51445593D01*
X145009912Y-74167000D01*
X131758000Y-74167000D01*
X131758000Y-71406033D01*
X131838886Y-71353985D01*
X132011960Y-71100682D01*
X132072850Y-70800000D01*
X132072850Y-69907566D01*
X132941643Y-69907566D01*
X133254295Y-70664241D01*
X133832714Y-71243671D01*
X134588842Y-71557642D01*
X135407566Y-71558357D01*
X136164241Y-71245705D01*
X136743671Y-70667286D01*
X137057642Y-69911158D01*
X137058357Y-69092434D01*
X136745705Y-68335759D01*
X136167286Y-67756329D01*
X135411158Y-67442358D01*
X134592434Y-67441643D01*
X133835759Y-67754295D01*
X133256329Y-68332714D01*
X132942358Y-69088842D01*
X132941643Y-69907566D01*
X132072850Y-69907566D01*
X132072850Y-68200000D01*
X132019995Y-67919102D01*
X131853985Y-67661114D01*
X131758000Y-67595530D01*
X131758000Y-59830000D01*
X132250000Y-59830000D01*
X132250000Y-61027063D01*
X132503325Y-61159756D01*
X132761162Y-61052975D01*
X133266905Y-60649567D01*
X133579773Y-60083328D01*
X133449561Y-59830000D01*
X132250000Y-59830000D01*
X131758000Y-59830000D01*
X131758000Y-59310000D01*
X132250000Y-59310000D01*
X132250000Y-59330000D01*
X133449561Y-59330000D01*
X133486569Y-59258000D01*
X137250000Y-59258000D01*
X137525501Y-59206161D01*
X137778531Y-59043340D01*
X137948280Y-58794904D01*
X138008000Y-58500000D01*
X138008000Y-51250000D01*
X137956161Y-50974499D01*
X137793340Y-50721469D01*
X137544904Y-50551720D01*
X137250000Y-50492000D01*
X125833000Y-50492000D01*
X125833000Y-48347922D01*
X126053422Y-48881383D01*
X126491312Y-49320038D01*
X127063735Y-49557729D01*
X127683546Y-49558270D01*
X128256383Y-49321578D01*
X128695038Y-48883688D01*
X128932729Y-48311265D01*
X128933000Y-48000000D01*
X135946477Y-48000000D01*
X136065073Y-48596221D01*
X136402805Y-49101672D01*
X136908256Y-49439404D01*
X137504477Y-49558000D01*
X137565523Y-49558000D01*
X138161744Y-49439404D01*
X138667195Y-49101672D01*
X139004927Y-48596221D01*
X139062149Y-48308546D01*
X145941730Y-48308546D01*
X146178422Y-48881383D01*
X146616312Y-49320038D01*
X147188735Y-49557729D01*
X147808546Y-49558270D01*
X148381383Y-49321578D01*
X148820038Y-48883688D01*
X149057729Y-48311265D01*
X149058000Y-48000000D01*
X156071477Y-48000000D01*
X156190073Y-48596221D01*
X156527805Y-49101672D01*
X157033256Y-49439404D01*
X157629477Y-49558000D01*
X157690523Y-49558000D01*
X158286744Y-49439404D01*
X158792195Y-49101672D01*
X159129927Y-48596221D01*
X159248523Y-48000000D01*
X159129927Y-47403779D01*
X158792195Y-46898328D01*
X158286744Y-46560596D01*
X157690523Y-46442000D01*
X157629477Y-46442000D01*
X157033256Y-46560596D01*
X156527805Y-46898328D01*
X156190073Y-47403779D01*
X156071477Y-48000000D01*
X149058000Y-48000000D01*
X149058270Y-47691454D01*
X148821578Y-47118617D01*
X148383688Y-46679962D01*
X147811265Y-46442271D01*
X147191454Y-46441730D01*
X146618617Y-46678422D01*
X146179962Y-47116312D01*
X145942271Y-47688735D01*
X145941730Y-48308546D01*
X139062149Y-48308546D01*
X139123523Y-48000000D01*
X139004927Y-47403779D01*
X138667195Y-46898328D01*
X138161744Y-46560596D01*
X137565523Y-46442000D01*
X137504477Y-46442000D01*
X136908256Y-46560596D01*
X136402805Y-46898328D01*
X136065073Y-47403779D01*
X135946477Y-48000000D01*
X128933000Y-48000000D01*
X128933270Y-47691454D01*
X128696578Y-47118617D01*
X128258688Y-46679962D01*
X127686265Y-46442271D01*
X127066454Y-46441730D01*
X126493617Y-46678422D01*
X126054962Y-47116312D01*
X125833000Y-47650855D01*
X125833000Y-44250002D01*
X125994528Y-44250002D01*
X125860231Y-44487489D01*
X125948923Y-44701660D01*
X126323326Y-45180591D01*
X126852508Y-45479788D01*
X127090000Y-45348330D01*
X127090000Y-44250000D01*
X127590000Y-44250000D01*
X127590000Y-45348330D01*
X127827492Y-45479788D01*
X128356674Y-45180591D01*
X128731077Y-44701660D01*
X128819769Y-44487489D01*
X128718579Y-44308546D01*
X135941730Y-44308546D01*
X136178422Y-44881383D01*
X136616312Y-45320038D01*
X137188735Y-45557729D01*
X137808546Y-45558270D01*
X138381383Y-45321578D01*
X138820038Y-44883688D01*
X138984554Y-44487489D01*
X146120231Y-44487489D01*
X146208923Y-44701660D01*
X146583326Y-45180591D01*
X147112508Y-45479788D01*
X147350000Y-45348330D01*
X147350000Y-44250000D01*
X147850000Y-44250000D01*
X147850000Y-45348330D01*
X148087492Y-45479788D01*
X148616674Y-45180591D01*
X148991077Y-44701660D01*
X149079769Y-44487489D01*
X148978579Y-44308546D01*
X156201730Y-44308546D01*
X156438422Y-44881383D01*
X156876312Y-45320038D01*
X157448735Y-45557729D01*
X158068546Y-45558270D01*
X158641383Y-45321578D01*
X159080038Y-44883688D01*
X159317729Y-44311265D01*
X159318270Y-43691454D01*
X159081578Y-43118617D01*
X158643688Y-42679962D01*
X158071265Y-42442271D01*
X157451454Y-42441730D01*
X156878617Y-42678422D01*
X156439962Y-43116312D01*
X156202271Y-43688735D01*
X156201730Y-44308546D01*
X148978579Y-44308546D01*
X148945471Y-44250000D01*
X147850000Y-44250000D01*
X147350000Y-44250000D01*
X146254529Y-44250000D01*
X146120231Y-44487489D01*
X138984554Y-44487489D01*
X139057729Y-44311265D01*
X139058270Y-43691454D01*
X138984333Y-43512511D01*
X146120231Y-43512511D01*
X146254529Y-43750000D01*
X147350000Y-43750000D01*
X147350000Y-42651670D01*
X147850000Y-42651670D01*
X147850000Y-43750000D01*
X148945471Y-43750000D01*
X149079769Y-43512511D01*
X148991077Y-43298340D01*
X148616674Y-42819409D01*
X148087492Y-42520212D01*
X147850000Y-42651670D01*
X147350000Y-42651670D01*
X147112508Y-42520212D01*
X146583326Y-42819409D01*
X146208923Y-43298340D01*
X146120231Y-43512511D01*
X138984333Y-43512511D01*
X138821578Y-43118617D01*
X138383688Y-42679962D01*
X137811265Y-42442271D01*
X137191454Y-42441730D01*
X136618617Y-42678422D01*
X136179962Y-43116312D01*
X135942271Y-43688735D01*
X135941730Y-44308546D01*
X128718579Y-44308546D01*
X128685471Y-44250000D01*
X127590000Y-44250000D01*
X127090000Y-44250000D01*
X127070000Y-44250000D01*
X127070000Y-43750000D01*
X127090000Y-43750000D01*
X127090000Y-42651670D01*
X127590000Y-42651670D01*
X127590000Y-43750000D01*
X128685471Y-43750000D01*
X128819769Y-43512511D01*
X128731077Y-43298340D01*
X128356674Y-42819409D01*
X127827492Y-42520212D01*
X127590000Y-42651670D01*
X127090000Y-42651670D01*
X126852508Y-42520212D01*
X126323326Y-42819409D01*
X125948923Y-43298340D01*
X125860231Y-43512511D01*
X125994528Y-43749998D01*
X125833000Y-43749998D01*
X125833000Y-35907566D01*
X127941643Y-35907566D01*
X128254295Y-36664241D01*
X128832714Y-37243671D01*
X129588842Y-37557642D01*
X130407566Y-37558357D01*
X131164241Y-37245705D01*
X131743671Y-36667286D01*
X132045873Y-35939500D01*
X132942000Y-35939500D01*
X132942000Y-36950775D01*
X133057398Y-37229372D01*
X133270627Y-37442601D01*
X133549224Y-37558000D01*
X134560500Y-37558000D01*
X134750000Y-37368500D01*
X134750000Y-35750000D01*
X135250000Y-35750000D01*
X135250000Y-37368500D01*
X135439500Y-37558000D01*
X136450776Y-37558000D01*
X136729373Y-37442601D01*
X136942602Y-37229372D01*
X137058000Y-36950775D01*
X137058000Y-35939500D01*
X137026066Y-35907566D01*
X147941643Y-35907566D01*
X148254295Y-36664241D01*
X148832714Y-37243671D01*
X149588842Y-37557642D01*
X150407566Y-37558357D01*
X151164241Y-37245705D01*
X151743671Y-36667286D01*
X152045873Y-35939500D01*
X152942000Y-35939500D01*
X152942000Y-36950775D01*
X153057398Y-37229372D01*
X153270627Y-37442601D01*
X153549224Y-37558000D01*
X154560500Y-37558000D01*
X154750000Y-37368500D01*
X154750000Y-35750000D01*
X155250000Y-35750000D01*
X155250000Y-37368500D01*
X155439500Y-37558000D01*
X156450776Y-37558000D01*
X156729373Y-37442601D01*
X156942602Y-37229372D01*
X157058000Y-36950775D01*
X157058000Y-35939500D01*
X156868500Y-35750000D01*
X155250000Y-35750000D01*
X154750000Y-35750000D01*
X153131500Y-35750000D01*
X152942000Y-35939500D01*
X152045873Y-35939500D01*
X152057642Y-35911158D01*
X152058357Y-35092434D01*
X151745705Y-34335759D01*
X151459671Y-34049225D01*
X152942000Y-34049225D01*
X152942000Y-35060500D01*
X153131500Y-35250000D01*
X154750000Y-35250000D01*
X154750000Y-33631500D01*
X155250000Y-33631500D01*
X155250000Y-35250000D01*
X156868500Y-35250000D01*
X157058000Y-35060500D01*
X157058000Y-34049225D01*
X156942602Y-33770628D01*
X156729373Y-33557399D01*
X156450776Y-33442000D01*
X155439500Y-33442000D01*
X155250000Y-33631500D01*
X154750000Y-33631500D01*
X154560500Y-33442000D01*
X153549224Y-33442000D01*
X153270627Y-33557399D01*
X153057398Y-33770628D01*
X152942000Y-34049225D01*
X151459671Y-34049225D01*
X151167286Y-33756329D01*
X150411158Y-33442358D01*
X149592434Y-33441643D01*
X148835759Y-33754295D01*
X148256329Y-34332714D01*
X147942358Y-35088842D01*
X147941643Y-35907566D01*
X137026066Y-35907566D01*
X136868500Y-35750000D01*
X135250000Y-35750000D01*
X134750000Y-35750000D01*
X133131500Y-35750000D01*
X132942000Y-35939500D01*
X132045873Y-35939500D01*
X132057642Y-35911158D01*
X132058357Y-35092434D01*
X131745705Y-34335759D01*
X131459671Y-34049225D01*
X132942000Y-34049225D01*
X132942000Y-35060500D01*
X133131500Y-35250000D01*
X134750000Y-35250000D01*
X134750000Y-33631500D01*
X135250000Y-33631500D01*
X135250000Y-35250000D01*
X136868500Y-35250000D01*
X137058000Y-35060500D01*
X137058000Y-34049225D01*
X136942602Y-33770628D01*
X136729373Y-33557399D01*
X136450776Y-33442000D01*
X135439500Y-33442000D01*
X135250000Y-33631500D01*
X134750000Y-33631500D01*
X134560500Y-33442000D01*
X133549224Y-33442000D01*
X133270627Y-33557399D01*
X133057398Y-33770628D01*
X132942000Y-34049225D01*
X131459671Y-34049225D01*
X131167286Y-33756329D01*
X130411158Y-33442358D01*
X129592434Y-33441643D01*
X128835759Y-33754295D01*
X128256329Y-34332714D01*
X127942358Y-35088842D01*
X127941643Y-35907566D01*
X125833000Y-35907566D01*
X125833000Y-30833000D01*
X169167000Y-30833000D01*
X169167000Y-74167000D01*
X169167000Y-74167000D01*
G37*
X169167000Y-74167000D02*
X151258000Y-74167000D01*
X151258000Y-71572850D01*
X151300000Y-71572850D01*
X151580898Y-71519995D01*
X151838886Y-71353985D01*
X152011960Y-71100682D01*
X152072850Y-70800000D01*
X152072850Y-69907566D01*
X152941643Y-69907566D01*
X153254295Y-70664241D01*
X153832714Y-71243671D01*
X154588842Y-71557642D01*
X155407566Y-71558357D01*
X156164241Y-71245705D01*
X156743671Y-70667286D01*
X157057642Y-69911158D01*
X157058357Y-69092434D01*
X156745705Y-68335759D01*
X156167286Y-67756329D01*
X155411158Y-67442358D01*
X154592434Y-67441643D01*
X153835759Y-67754295D01*
X153256329Y-68332714D01*
X152942358Y-69088842D01*
X152941643Y-69907566D01*
X152072850Y-69907566D01*
X152072850Y-68200000D01*
X152019995Y-67919102D01*
X151853985Y-67661114D01*
X151600682Y-67488040D01*
X151300000Y-67427150D01*
X151258000Y-67427150D01*
X151258000Y-59790000D01*
X151750000Y-59790000D01*
X151750000Y-60987063D01*
X152003325Y-61119756D01*
X152261162Y-61012975D01*
X152766905Y-60609567D01*
X153079773Y-60043328D01*
X152949561Y-59790000D01*
X151750000Y-59790000D01*
X151258000Y-59790000D01*
X151258000Y-59270000D01*
X151750000Y-59270000D01*
X151750000Y-59290000D01*
X152949561Y-59290000D01*
X152966009Y-59258000D01*
X158000000Y-59258000D01*
X158275501Y-59206161D01*
X158528531Y-59043340D01*
X158698280Y-58794904D01*
X158758000Y-58500000D01*
X158758000Y-56200000D01*
X162327150Y-56200000D01*
X162327150Y-58800000D01*
X162380005Y-59080898D01*
X162546015Y-59338886D01*
X162799318Y-59511960D01*
X163100000Y-59572850D01*
X165700000Y-59572850D01*
X165980898Y-59519995D01*
X166238886Y-59353985D01*
X166411960Y-59100682D01*
X166472850Y-58800000D01*
X166472850Y-56200000D01*
X166419995Y-55919102D01*
X166253985Y-55661114D01*
X166000682Y-55488040D01*
X165700000Y-55427150D01*
X163100000Y-55427150D01*
X162819102Y-55480005D01*
X162561114Y-55646015D01*
X162388040Y-55899318D01*
X162327150Y-56200000D01*
X158758000Y-56200000D01*
X158758000Y-54014889D01*
X163238664Y-54014889D01*
X163377678Y-54332430D01*
X164156738Y-54584170D01*
X164972833Y-54518614D01*
X165422322Y-54332430D01*
X165561336Y-54014889D01*
X164400000Y-52853553D01*
X163238664Y-54014889D01*
X158758000Y-54014889D01*
X158758000Y-52256738D01*
X162315830Y-52256738D01*
X162381386Y-53072833D01*
X162567570Y-53522322D01*
X162885111Y-53661336D01*
X164046447Y-52500000D01*
X164753553Y-52500000D01*
X165914889Y-53661336D01*
X166232430Y-53522322D01*
X166484170Y-52743262D01*
X166418614Y-51927167D01*
X166232430Y-51477678D01*
X165914889Y-51338664D01*
X164753553Y-52500000D01*
X164046447Y-52500000D01*
X162885111Y-51338664D01*
X162567570Y-51477678D01*
X162315830Y-52256738D01*
X158758000Y-52256738D01*
X158758000Y-51500000D01*
X158706161Y-51224499D01*
X158552119Y-50985111D01*
X163238664Y-50985111D01*
X164400000Y-52146447D01*
X165561336Y-50985111D01*
X165422322Y-50667570D01*
X164643262Y-50415830D01*
X163827167Y-50481386D01*
X163377678Y-50667570D01*
X163238664Y-50985111D01*
X158552119Y-50985111D01*
X158543340Y-50971469D01*
X158294904Y-50801720D01*
X158000000Y-50742000D01*
X150846906Y-50742000D01*
X150600000Y-50692000D01*
X145900000Y-50692000D01*
X145628610Y-50742249D01*
X145374637Y-50903596D01*
X145203446Y-51151041D01*
X145142013Y-51445593D01*
X145009912Y-74167000D01*
X131758000Y-74167000D01*
X131758000Y-71406033D01*
X131838886Y-71353985D01*
X132011960Y-71100682D01*
X132072850Y-70800000D01*
X132072850Y-69907566D01*
X132941643Y-69907566D01*
X133254295Y-70664241D01*
X133832714Y-71243671D01*
X134588842Y-71557642D01*
X135407566Y-71558357D01*
X136164241Y-71245705D01*
X136743671Y-70667286D01*
X137057642Y-69911158D01*
X137058357Y-69092434D01*
X136745705Y-68335759D01*
X136167286Y-67756329D01*
X135411158Y-67442358D01*
X134592434Y-67441643D01*
X133835759Y-67754295D01*
X133256329Y-68332714D01*
X132942358Y-69088842D01*
X132941643Y-69907566D01*
X132072850Y-69907566D01*
X132072850Y-68200000D01*
X132019995Y-67919102D01*
X131853985Y-67661114D01*
X131758000Y-67595530D01*
X131758000Y-59830000D01*
X132250000Y-59830000D01*
X132250000Y-61027063D01*
X132503325Y-61159756D01*
X132761162Y-61052975D01*
X133266905Y-60649567D01*
X133579773Y-60083328D01*
X133449561Y-59830000D01*
X132250000Y-59830000D01*
X131758000Y-59830000D01*
X131758000Y-59310000D01*
X132250000Y-59310000D01*
X132250000Y-59330000D01*
X133449561Y-59330000D01*
X133486569Y-59258000D01*
X137250000Y-59258000D01*
X137525501Y-59206161D01*
X137778531Y-59043340D01*
X137948280Y-58794904D01*
X138008000Y-58500000D01*
X138008000Y-51250000D01*
X137956161Y-50974499D01*
X137793340Y-50721469D01*
X137544904Y-50551720D01*
X137250000Y-50492000D01*
X125833000Y-50492000D01*
X125833000Y-48347922D01*
X126053422Y-48881383D01*
X126491312Y-49320038D01*
X127063735Y-49557729D01*
X127683546Y-49558270D01*
X128256383Y-49321578D01*
X128695038Y-48883688D01*
X128932729Y-48311265D01*
X128933000Y-48000000D01*
X135946477Y-48000000D01*
X136065073Y-48596221D01*
X136402805Y-49101672D01*
X136908256Y-49439404D01*
X137504477Y-49558000D01*
X137565523Y-49558000D01*
X138161744Y-49439404D01*
X138667195Y-49101672D01*
X139004927Y-48596221D01*
X139062149Y-48308546D01*
X145941730Y-48308546D01*
X146178422Y-48881383D01*
X146616312Y-49320038D01*
X147188735Y-49557729D01*
X147808546Y-49558270D01*
X148381383Y-49321578D01*
X148820038Y-48883688D01*
X149057729Y-48311265D01*
X149058000Y-48000000D01*
X156071477Y-48000000D01*
X156190073Y-48596221D01*
X156527805Y-49101672D01*
X157033256Y-49439404D01*
X157629477Y-49558000D01*
X157690523Y-49558000D01*
X158286744Y-49439404D01*
X158792195Y-49101672D01*
X159129927Y-48596221D01*
X159248523Y-48000000D01*
X159129927Y-47403779D01*
X158792195Y-46898328D01*
X158286744Y-46560596D01*
X157690523Y-46442000D01*
X157629477Y-46442000D01*
X157033256Y-46560596D01*
X156527805Y-46898328D01*
X156190073Y-47403779D01*
X156071477Y-48000000D01*
X149058000Y-48000000D01*
X149058270Y-47691454D01*
X148821578Y-47118617D01*
X148383688Y-46679962D01*
X147811265Y-46442271D01*
X147191454Y-46441730D01*
X146618617Y-46678422D01*
X146179962Y-47116312D01*
X145942271Y-47688735D01*
X145941730Y-48308546D01*
X139062149Y-48308546D01*
X139123523Y-48000000D01*
X139004927Y-47403779D01*
X138667195Y-46898328D01*
X138161744Y-46560596D01*
X137565523Y-46442000D01*
X137504477Y-46442000D01*
X136908256Y-46560596D01*
X136402805Y-46898328D01*
X136065073Y-47403779D01*
X135946477Y-48000000D01*
X128933000Y-48000000D01*
X128933270Y-47691454D01*
X128696578Y-47118617D01*
X128258688Y-46679962D01*
X127686265Y-46442271D01*
X127066454Y-46441730D01*
X126493617Y-46678422D01*
X126054962Y-47116312D01*
X125833000Y-47650855D01*
X125833000Y-44250002D01*
X125994528Y-44250002D01*
X125860231Y-44487489D01*
X125948923Y-44701660D01*
X126323326Y-45180591D01*
X126852508Y-45479788D01*
X127090000Y-45348330D01*
X127090000Y-44250000D01*
X127590000Y-44250000D01*
X127590000Y-45348330D01*
X127827492Y-45479788D01*
X128356674Y-45180591D01*
X128731077Y-44701660D01*
X128819769Y-44487489D01*
X128718579Y-44308546D01*
X135941730Y-44308546D01*
X136178422Y-44881383D01*
X136616312Y-45320038D01*
X137188735Y-45557729D01*
X137808546Y-45558270D01*
X138381383Y-45321578D01*
X138820038Y-44883688D01*
X138984554Y-44487489D01*
X146120231Y-44487489D01*
X146208923Y-44701660D01*
X146583326Y-45180591D01*
X147112508Y-45479788D01*
X147350000Y-45348330D01*
X147350000Y-44250000D01*
X147850000Y-44250000D01*
X147850000Y-45348330D01*
X148087492Y-45479788D01*
X148616674Y-45180591D01*
X148991077Y-44701660D01*
X149079769Y-44487489D01*
X148978579Y-44308546D01*
X156201730Y-44308546D01*
X156438422Y-44881383D01*
X156876312Y-45320038D01*
X157448735Y-45557729D01*
X158068546Y-45558270D01*
X158641383Y-45321578D01*
X159080038Y-44883688D01*
X159317729Y-44311265D01*
X159318270Y-43691454D01*
X159081578Y-43118617D01*
X158643688Y-42679962D01*
X158071265Y-42442271D01*
X157451454Y-42441730D01*
X156878617Y-42678422D01*
X156439962Y-43116312D01*
X156202271Y-43688735D01*
X156201730Y-44308546D01*
X148978579Y-44308546D01*
X148945471Y-44250000D01*
X147850000Y-44250000D01*
X147350000Y-44250000D01*
X146254529Y-44250000D01*
X146120231Y-44487489D01*
X138984554Y-44487489D01*
X139057729Y-44311265D01*
X139058270Y-43691454D01*
X138984333Y-43512511D01*
X146120231Y-43512511D01*
X146254529Y-43750000D01*
X147350000Y-43750000D01*
X147350000Y-42651670D01*
X147850000Y-42651670D01*
X147850000Y-43750000D01*
X148945471Y-43750000D01*
X149079769Y-43512511D01*
X148991077Y-43298340D01*
X148616674Y-42819409D01*
X148087492Y-42520212D01*
X147850000Y-42651670D01*
X147350000Y-42651670D01*
X147112508Y-42520212D01*
X146583326Y-42819409D01*
X146208923Y-43298340D01*
X146120231Y-43512511D01*
X138984333Y-43512511D01*
X138821578Y-43118617D01*
X138383688Y-42679962D01*
X137811265Y-42442271D01*
X137191454Y-42441730D01*
X136618617Y-42678422D01*
X136179962Y-43116312D01*
X135942271Y-43688735D01*
X135941730Y-44308546D01*
X128718579Y-44308546D01*
X128685471Y-44250000D01*
X127590000Y-44250000D01*
X127090000Y-44250000D01*
X127070000Y-44250000D01*
X127070000Y-43750000D01*
X127090000Y-43750000D01*
X127090000Y-42651670D01*
X127590000Y-42651670D01*
X127590000Y-43750000D01*
X128685471Y-43750000D01*
X128819769Y-43512511D01*
X128731077Y-43298340D01*
X128356674Y-42819409D01*
X127827492Y-42520212D01*
X127590000Y-42651670D01*
X127090000Y-42651670D01*
X126852508Y-42520212D01*
X126323326Y-42819409D01*
X125948923Y-43298340D01*
X125860231Y-43512511D01*
X125994528Y-43749998D01*
X125833000Y-43749998D01*
X125833000Y-35907566D01*
X127941643Y-35907566D01*
X128254295Y-36664241D01*
X128832714Y-37243671D01*
X129588842Y-37557642D01*
X130407566Y-37558357D01*
X131164241Y-37245705D01*
X131743671Y-36667286D01*
X132045873Y-35939500D01*
X132942000Y-35939500D01*
X132942000Y-36950775D01*
X133057398Y-37229372D01*
X133270627Y-37442601D01*
X133549224Y-37558000D01*
X134560500Y-37558000D01*
X134750000Y-37368500D01*
X134750000Y-35750000D01*
X135250000Y-35750000D01*
X135250000Y-37368500D01*
X135439500Y-37558000D01*
X136450776Y-37558000D01*
X136729373Y-37442601D01*
X136942602Y-37229372D01*
X137058000Y-36950775D01*
X137058000Y-35939500D01*
X137026066Y-35907566D01*
X147941643Y-35907566D01*
X148254295Y-36664241D01*
X148832714Y-37243671D01*
X149588842Y-37557642D01*
X150407566Y-37558357D01*
X151164241Y-37245705D01*
X151743671Y-36667286D01*
X152045873Y-35939500D01*
X152942000Y-35939500D01*
X152942000Y-36950775D01*
X153057398Y-37229372D01*
X153270627Y-37442601D01*
X153549224Y-37558000D01*
X154560500Y-37558000D01*
X154750000Y-37368500D01*
X154750000Y-35750000D01*
X155250000Y-35750000D01*
X155250000Y-37368500D01*
X155439500Y-37558000D01*
X156450776Y-37558000D01*
X156729373Y-37442601D01*
X156942602Y-37229372D01*
X157058000Y-36950775D01*
X157058000Y-35939500D01*
X156868500Y-35750000D01*
X155250000Y-35750000D01*
X154750000Y-35750000D01*
X153131500Y-35750000D01*
X152942000Y-35939500D01*
X152045873Y-35939500D01*
X152057642Y-35911158D01*
X152058357Y-35092434D01*
X151745705Y-34335759D01*
X151459671Y-34049225D01*
X152942000Y-34049225D01*
X152942000Y-35060500D01*
X153131500Y-35250000D01*
X154750000Y-35250000D01*
X154750000Y-33631500D01*
X155250000Y-33631500D01*
X155250000Y-35250000D01*
X156868500Y-35250000D01*
X157058000Y-35060500D01*
X157058000Y-34049225D01*
X156942602Y-33770628D01*
X156729373Y-33557399D01*
X156450776Y-33442000D01*
X155439500Y-33442000D01*
X155250000Y-33631500D01*
X154750000Y-33631500D01*
X154560500Y-33442000D01*
X153549224Y-33442000D01*
X153270627Y-33557399D01*
X153057398Y-33770628D01*
X152942000Y-34049225D01*
X151459671Y-34049225D01*
X151167286Y-33756329D01*
X150411158Y-33442358D01*
X149592434Y-33441643D01*
X148835759Y-33754295D01*
X148256329Y-34332714D01*
X147942358Y-35088842D01*
X147941643Y-35907566D01*
X137026066Y-35907566D01*
X136868500Y-35750000D01*
X135250000Y-35750000D01*
X134750000Y-35750000D01*
X133131500Y-35750000D01*
X132942000Y-35939500D01*
X132045873Y-35939500D01*
X132057642Y-35911158D01*
X132058357Y-35092434D01*
X131745705Y-34335759D01*
X131459671Y-34049225D01*
X132942000Y-34049225D01*
X132942000Y-35060500D01*
X133131500Y-35250000D01*
X134750000Y-35250000D01*
X134750000Y-33631500D01*
X135250000Y-33631500D01*
X135250000Y-35250000D01*
X136868500Y-35250000D01*
X137058000Y-35060500D01*
X137058000Y-34049225D01*
X136942602Y-33770628D01*
X136729373Y-33557399D01*
X136450776Y-33442000D01*
X135439500Y-33442000D01*
X135250000Y-33631500D01*
X134750000Y-33631500D01*
X134560500Y-33442000D01*
X133549224Y-33442000D01*
X133270627Y-33557399D01*
X133057398Y-33770628D01*
X132942000Y-34049225D01*
X131459671Y-34049225D01*
X131167286Y-33756329D01*
X130411158Y-33442358D01*
X129592434Y-33441643D01*
X128835759Y-33754295D01*
X128256329Y-34332714D01*
X127942358Y-35088842D01*
X127941643Y-35907566D01*
X125833000Y-35907566D01*
X125833000Y-30833000D01*
X169167000Y-30833000D01*
X169167000Y-74167000D01*
D19*
G36*
X150494604Y-51606984D02*
X150544511Y-51639461D01*
X150599744Y-51650000D01*
X157850000Y-51650000D01*
X157850000Y-58350000D01*
X152500804Y-58350000D01*
X152358300Y-58254782D01*
X152604606Y-58087393D01*
X152936650Y-57581906D01*
X152847493Y-57350000D01*
X151850000Y-57350000D01*
X151850000Y-57370000D01*
X151150000Y-57370000D01*
X151150000Y-57350000D01*
X150152507Y-57350000D01*
X150063350Y-57581906D01*
X150395394Y-58087393D01*
X150641700Y-58254782D01*
X150498846Y-58350234D01*
X150441642Y-58361818D01*
X150392479Y-58395409D01*
X150360258Y-58445481D01*
X150351464Y-58492220D01*
X150067987Y-58916475D01*
X149950000Y-59509634D01*
X149950000Y-59570366D01*
X150067987Y-60163525D01*
X150350000Y-60585589D01*
X150350000Y-74275000D01*
X145917298Y-74275000D01*
X145942080Y-70012500D01*
X148050000Y-70012500D01*
X148050000Y-70929293D01*
X148148957Y-71168195D01*
X148331805Y-71351043D01*
X148570707Y-71450000D01*
X149487500Y-71450000D01*
X149650000Y-71287500D01*
X149650000Y-69850000D01*
X148212500Y-69850000D01*
X148050000Y-70012500D01*
X145942080Y-70012500D01*
X145953369Y-68070707D01*
X148050000Y-68070707D01*
X148050000Y-68987500D01*
X148212500Y-69150000D01*
X149650000Y-69150000D01*
X149650000Y-67712500D01*
X149487500Y-67550000D01*
X148570707Y-67550000D01*
X148331805Y-67648957D01*
X148148957Y-67831805D01*
X148050000Y-68070707D01*
X145953369Y-68070707D01*
X146037734Y-53560000D01*
X149937266Y-53560000D01*
X149937266Y-55360000D01*
X149982590Y-55600876D01*
X150124947Y-55822105D01*
X150342159Y-55970520D01*
X150355568Y-55973235D01*
X150063350Y-56418094D01*
X150152507Y-56650000D01*
X151150000Y-56650000D01*
X151150000Y-56630000D01*
X151850000Y-56630000D01*
X151850000Y-56650000D01*
X152847493Y-56650000D01*
X152936650Y-56418094D01*
X152645303Y-55974562D01*
X152862105Y-55835053D01*
X153010520Y-55617841D01*
X153062734Y-55360000D01*
X153062734Y-53560000D01*
X153017410Y-53319124D01*
X152875053Y-53097895D01*
X152657841Y-52949480D01*
X152400000Y-52897266D01*
X150600000Y-52897266D01*
X150359124Y-52942590D01*
X150137895Y-53084947D01*
X149989480Y-53302159D01*
X149937266Y-53560000D01*
X146037734Y-53560000D01*
X146049130Y-51600000D01*
X150489884Y-51600000D01*
X150494604Y-51606984D01*
X150494604Y-51606984D01*
G37*
X150494604Y-51606984D02*
X150544511Y-51639461D01*
X150599744Y-51650000D01*
X157850000Y-51650000D01*
X157850000Y-58350000D01*
X152500804Y-58350000D01*
X152358300Y-58254782D01*
X152604606Y-58087393D01*
X152936650Y-57581906D01*
X152847493Y-57350000D01*
X151850000Y-57350000D01*
X151850000Y-57370000D01*
X151150000Y-57370000D01*
X151150000Y-57350000D01*
X150152507Y-57350000D01*
X150063350Y-57581906D01*
X150395394Y-58087393D01*
X150641700Y-58254782D01*
X150498846Y-58350234D01*
X150441642Y-58361818D01*
X150392479Y-58395409D01*
X150360258Y-58445481D01*
X150351464Y-58492220D01*
X150067987Y-58916475D01*
X149950000Y-59509634D01*
X149950000Y-59570366D01*
X150067987Y-60163525D01*
X150350000Y-60585589D01*
X150350000Y-74275000D01*
X145917298Y-74275000D01*
X145942080Y-70012500D01*
X148050000Y-70012500D01*
X148050000Y-70929293D01*
X148148957Y-71168195D01*
X148331805Y-71351043D01*
X148570707Y-71450000D01*
X149487500Y-71450000D01*
X149650000Y-71287500D01*
X149650000Y-69850000D01*
X148212500Y-69850000D01*
X148050000Y-70012500D01*
X145942080Y-70012500D01*
X145953369Y-68070707D01*
X148050000Y-68070707D01*
X148050000Y-68987500D01*
X148212500Y-69150000D01*
X149650000Y-69150000D01*
X149650000Y-67712500D01*
X149487500Y-67550000D01*
X148570707Y-67550000D01*
X148331805Y-67648957D01*
X148148957Y-67831805D01*
X148050000Y-68070707D01*
X145953369Y-68070707D01*
X146037734Y-53560000D01*
X149937266Y-53560000D01*
X149937266Y-55360000D01*
X149982590Y-55600876D01*
X150124947Y-55822105D01*
X150342159Y-55970520D01*
X150355568Y-55973235D01*
X150063350Y-56418094D01*
X150152507Y-56650000D01*
X151150000Y-56650000D01*
X151150000Y-56630000D01*
X151850000Y-56630000D01*
X151850000Y-56650000D01*
X152847493Y-56650000D01*
X152936650Y-56418094D01*
X152645303Y-55974562D01*
X152862105Y-55835053D01*
X153010520Y-55617841D01*
X153062734Y-55360000D01*
X153062734Y-53560000D01*
X153017410Y-53319124D01*
X152875053Y-53097895D01*
X152657841Y-52949480D01*
X152400000Y-52897266D01*
X150600000Y-52897266D01*
X150359124Y-52942590D01*
X150137895Y-53084947D01*
X149989480Y-53302159D01*
X149937266Y-53560000D01*
X146037734Y-53560000D01*
X146049130Y-51600000D01*
X150489884Y-51600000D01*
X150494604Y-51606984D01*
G36*
X137100000Y-58350000D02*
X132940940Y-58350000D01*
X132858300Y-58294782D01*
X133104606Y-58127393D01*
X133436650Y-57621906D01*
X133347493Y-57390000D01*
X132350000Y-57390000D01*
X132350000Y-57410000D01*
X131650000Y-57410000D01*
X131650000Y-57390000D01*
X130652507Y-57390000D01*
X130563350Y-57621906D01*
X130895394Y-58127393D01*
X131141700Y-58294782D01*
X131059060Y-58350000D01*
X131000000Y-58350000D01*
X130941642Y-58361818D01*
X130892479Y-58395409D01*
X130860258Y-58445481D01*
X130850000Y-58500000D01*
X130850000Y-58534411D01*
X130567987Y-58956475D01*
X130450000Y-59549634D01*
X130450000Y-59610366D01*
X130567987Y-60203525D01*
X130850000Y-60625589D01*
X130850000Y-67550000D01*
X130512500Y-67550000D01*
X130350000Y-67712500D01*
X130350000Y-69150000D01*
X130370000Y-69150000D01*
X130370000Y-69850000D01*
X130350000Y-69850000D01*
X130350000Y-71287500D01*
X130512500Y-71450000D01*
X130850000Y-71450000D01*
X130850000Y-74275000D01*
X125725000Y-74275000D01*
X125725000Y-70012500D01*
X128050000Y-70012500D01*
X128050000Y-70929293D01*
X128148957Y-71168195D01*
X128331805Y-71351043D01*
X128570707Y-71450000D01*
X129487500Y-71450000D01*
X129650000Y-71287500D01*
X129650000Y-69850000D01*
X128212500Y-69850000D01*
X128050000Y-70012500D01*
X125725000Y-70012500D01*
X125725000Y-68070707D01*
X128050000Y-68070707D01*
X128050000Y-68987500D01*
X128212500Y-69150000D01*
X129650000Y-69150000D01*
X129650000Y-67712500D01*
X129487500Y-67550000D01*
X128570707Y-67550000D01*
X128331805Y-67648957D01*
X128148957Y-67831805D01*
X128050000Y-68070707D01*
X125725000Y-68070707D01*
X125725000Y-53600000D01*
X130437266Y-53600000D01*
X130437266Y-55400000D01*
X130482590Y-55640876D01*
X130624947Y-55862105D01*
X130842159Y-56010520D01*
X130855568Y-56013235D01*
X130563350Y-56458094D01*
X130652507Y-56690000D01*
X131650000Y-56690000D01*
X131650000Y-56670000D01*
X132350000Y-56670000D01*
X132350000Y-56690000D01*
X133347493Y-56690000D01*
X133436650Y-56458094D01*
X133145303Y-56014562D01*
X133362105Y-55875053D01*
X133510520Y-55657841D01*
X133562734Y-55400000D01*
X133562734Y-53600000D01*
X133517410Y-53359124D01*
X133375053Y-53137895D01*
X133157841Y-52989480D01*
X132900000Y-52937266D01*
X131100000Y-52937266D01*
X130859124Y-52982590D01*
X130637895Y-53124947D01*
X130489480Y-53342159D01*
X130437266Y-53600000D01*
X125725000Y-53600000D01*
X125725000Y-51400000D01*
X137100000Y-51400000D01*
X137100000Y-58350000D01*
X137100000Y-58350000D01*
G37*
X137100000Y-58350000D02*
X132940940Y-58350000D01*
X132858300Y-58294782D01*
X133104606Y-58127393D01*
X133436650Y-57621906D01*
X133347493Y-57390000D01*
X132350000Y-57390000D01*
X132350000Y-57410000D01*
X131650000Y-57410000D01*
X131650000Y-57390000D01*
X130652507Y-57390000D01*
X130563350Y-57621906D01*
X130895394Y-58127393D01*
X131141700Y-58294782D01*
X131059060Y-58350000D01*
X131000000Y-58350000D01*
X130941642Y-58361818D01*
X130892479Y-58395409D01*
X130860258Y-58445481D01*
X130850000Y-58500000D01*
X130850000Y-58534411D01*
X130567987Y-58956475D01*
X130450000Y-59549634D01*
X130450000Y-59610366D01*
X130567987Y-60203525D01*
X130850000Y-60625589D01*
X130850000Y-67550000D01*
X130512500Y-67550000D01*
X130350000Y-67712500D01*
X130350000Y-69150000D01*
X130370000Y-69150000D01*
X130370000Y-69850000D01*
X130350000Y-69850000D01*
X130350000Y-71287500D01*
X130512500Y-71450000D01*
X130850000Y-71450000D01*
X130850000Y-74275000D01*
X125725000Y-74275000D01*
X125725000Y-70012500D01*
X128050000Y-70012500D01*
X128050000Y-70929293D01*
X128148957Y-71168195D01*
X128331805Y-71351043D01*
X128570707Y-71450000D01*
X129487500Y-71450000D01*
X129650000Y-71287500D01*
X129650000Y-69850000D01*
X128212500Y-69850000D01*
X128050000Y-70012500D01*
X125725000Y-70012500D01*
X125725000Y-68070707D01*
X128050000Y-68070707D01*
X128050000Y-68987500D01*
X128212500Y-69150000D01*
X129650000Y-69150000D01*
X129650000Y-67712500D01*
X129487500Y-67550000D01*
X128570707Y-67550000D01*
X128331805Y-67648957D01*
X128148957Y-67831805D01*
X128050000Y-68070707D01*
X125725000Y-68070707D01*
X125725000Y-53600000D01*
X130437266Y-53600000D01*
X130437266Y-55400000D01*
X130482590Y-55640876D01*
X130624947Y-55862105D01*
X130842159Y-56010520D01*
X130855568Y-56013235D01*
X130563350Y-56458094D01*
X130652507Y-56690000D01*
X131650000Y-56690000D01*
X131650000Y-56670000D01*
X132350000Y-56670000D01*
X132350000Y-56690000D01*
X133347493Y-56690000D01*
X133436650Y-56458094D01*
X133145303Y-56014562D01*
X133362105Y-55875053D01*
X133510520Y-55657841D01*
X133562734Y-55400000D01*
X133562734Y-53600000D01*
X133517410Y-53359124D01*
X133375053Y-53137895D01*
X133157841Y-52989480D01*
X132900000Y-52937266D01*
X131100000Y-52937266D01*
X130859124Y-52982590D01*
X130637895Y-53124947D01*
X130489480Y-53342159D01*
X130437266Y-53600000D01*
X125725000Y-53600000D01*
X125725000Y-51400000D01*
X137100000Y-51400000D01*
X137100000Y-58350000D01*
M02*
