G04 #@! TF.FileFunction,Copper,L2,Bot,Signal*
%FSLAX46Y46*%
G04 Gerber Fmt 4.6, Leading zero omitted, Abs format (unit mm)*
G04 Created by KiCad (PCBNEW 4.0.7) date 03/26/18 18:34:16*
%MOMM*%
%LPD*%
G01*
G04 APERTURE LIST*
%ADD10C,0.100000*%
%ADD11C,0.150000*%
%ADD12R,1.800000X1.800000*%
%ADD13O,1.800000X1.800000*%
%ADD14R,2.600000X2.600000*%
%ADD15C,2.600000*%
%ADD16C,1.600000*%
%ADD17O,1.600000X1.600000*%
%ADD18C,0.400000*%
%ADD19C,0.250000*%
G04 APERTURE END LIST*
D10*
D11*
X125000000Y-75000000D02*
X125000000Y-30000000D01*
X170000000Y-75000000D02*
X125000000Y-75000000D01*
X170000000Y-30000000D02*
X170000000Y-75000000D01*
X125000000Y-30000000D02*
X170000000Y-30000000D01*
D12*
X132000000Y-54500000D03*
D13*
X132000000Y-57040000D03*
X132000000Y-59580000D03*
D14*
X135000000Y-35500000D03*
D15*
X130000000Y-35500000D03*
D14*
X130000000Y-69500000D03*
D15*
X135000000Y-69500000D03*
D14*
X155000000Y-35500000D03*
D15*
X150000000Y-35500000D03*
D14*
X150000000Y-69500000D03*
D15*
X155000000Y-69500000D03*
D14*
X164400000Y-57500000D03*
D15*
X164400000Y-52500000D03*
D12*
X151500000Y-54460000D03*
D13*
X151500000Y-57000000D03*
X151500000Y-59540000D03*
D16*
X127375000Y-48000000D03*
D17*
X137535000Y-48000000D03*
D16*
X137500000Y-44000000D03*
D17*
X127340000Y-44000000D03*
D16*
X147500000Y-48000000D03*
D17*
X157660000Y-48000000D03*
D16*
X157760000Y-44000000D03*
D17*
X147600000Y-44000000D03*
D18*
X130000000Y-35500000D02*
X130000000Y-45375000D01*
X130000000Y-45375000D02*
X127375000Y-48000000D01*
X147500000Y-48000000D02*
X150000000Y-45500000D01*
X150000000Y-45500000D02*
X150000000Y-35500000D01*
X137535000Y-51725000D02*
X134760000Y-54500000D01*
X134760000Y-54500000D02*
X132000000Y-54500000D01*
X137500000Y-44000000D02*
X137500000Y-47965000D01*
X137500000Y-47965000D02*
X137535000Y-48000000D01*
X137535000Y-48000000D02*
X137535000Y-51725000D01*
X157660000Y-48000000D02*
X157660000Y-44100000D01*
X157660000Y-44100000D02*
X157760000Y-44000000D01*
X157660000Y-52560000D02*
X157660000Y-48000000D01*
X157660000Y-52560000D02*
X155760000Y-54460000D01*
X155760000Y-54460000D02*
X151500000Y-54460000D01*
D19*
G36*
X169292000Y-74292000D02*
X125708000Y-74292000D01*
X125708000Y-68200000D01*
X128054599Y-68200000D01*
X128054599Y-70800000D01*
X128098737Y-71034576D01*
X128237372Y-71250019D01*
X128448903Y-71394553D01*
X128700000Y-71445401D01*
X131300000Y-71445401D01*
X131534576Y-71401263D01*
X131750019Y-71262628D01*
X131894553Y-71051097D01*
X131945401Y-70800000D01*
X131945401Y-69882811D01*
X133066665Y-69882811D01*
X133360327Y-70593526D01*
X133903614Y-71137762D01*
X134613816Y-71432664D01*
X135382811Y-71433335D01*
X136093526Y-71139673D01*
X136637762Y-70596386D01*
X136932664Y-69886184D01*
X136933335Y-69117189D01*
X136639673Y-68406474D01*
X136433560Y-68200000D01*
X148054599Y-68200000D01*
X148054599Y-70800000D01*
X148098737Y-71034576D01*
X148237372Y-71250019D01*
X148448903Y-71394553D01*
X148700000Y-71445401D01*
X151300000Y-71445401D01*
X151534576Y-71401263D01*
X151750019Y-71262628D01*
X151894553Y-71051097D01*
X151945401Y-70800000D01*
X151945401Y-69882811D01*
X153066665Y-69882811D01*
X153360327Y-70593526D01*
X153903614Y-71137762D01*
X154613816Y-71432664D01*
X155382811Y-71433335D01*
X156093526Y-71139673D01*
X156637762Y-70596386D01*
X156932664Y-69886184D01*
X156933335Y-69117189D01*
X156639673Y-68406474D01*
X156096386Y-67862238D01*
X155386184Y-67567336D01*
X154617189Y-67566665D01*
X153906474Y-67860327D01*
X153362238Y-68403614D01*
X153067336Y-69113816D01*
X153066665Y-69882811D01*
X151945401Y-69882811D01*
X151945401Y-68200000D01*
X151901263Y-67965424D01*
X151762628Y-67749981D01*
X151551097Y-67605447D01*
X151300000Y-67554599D01*
X148700000Y-67554599D01*
X148465424Y-67598737D01*
X148249981Y-67737372D01*
X148105447Y-67948903D01*
X148054599Y-68200000D01*
X136433560Y-68200000D01*
X136096386Y-67862238D01*
X135386184Y-67567336D01*
X134617189Y-67566665D01*
X133906474Y-67860327D01*
X133362238Y-68403614D01*
X133067336Y-69113816D01*
X133066665Y-69882811D01*
X131945401Y-69882811D01*
X131945401Y-68200000D01*
X131901263Y-67965424D01*
X131762628Y-67749981D01*
X131551097Y-67605447D01*
X131300000Y-67554599D01*
X128700000Y-67554599D01*
X128465424Y-67598737D01*
X128249981Y-67737372D01*
X128105447Y-67948903D01*
X128054599Y-68200000D01*
X125708000Y-68200000D01*
X125708000Y-53600000D01*
X130454599Y-53600000D01*
X130454599Y-55400000D01*
X130498737Y-55634576D01*
X130637372Y-55850019D01*
X130848903Y-55994553D01*
X130867645Y-55998348D01*
X130583693Y-56423313D01*
X130467000Y-57009967D01*
X130467000Y-57070033D01*
X130583693Y-57656687D01*
X130916005Y-58154028D01*
X131413346Y-58486340D01*
X132000000Y-58603033D01*
X132586654Y-58486340D01*
X133083995Y-58154028D01*
X133416307Y-57656687D01*
X133533000Y-57070033D01*
X133533000Y-57009967D01*
X133416307Y-56423313D01*
X133134333Y-56001309D01*
X133134576Y-56001263D01*
X133350019Y-55862628D01*
X133494553Y-55651097D01*
X133545401Y-55400000D01*
X133545401Y-55333000D01*
X134760000Y-55333000D01*
X135078776Y-55269592D01*
X135349020Y-55089020D01*
X136878040Y-53560000D01*
X149954599Y-53560000D01*
X149954599Y-55360000D01*
X149998737Y-55594576D01*
X150137372Y-55810019D01*
X150348903Y-55954553D01*
X150367645Y-55958348D01*
X150083693Y-56383313D01*
X149967000Y-56969967D01*
X149967000Y-57030033D01*
X150083693Y-57616687D01*
X150416005Y-58114028D01*
X150913346Y-58446340D01*
X151500000Y-58563033D01*
X152086654Y-58446340D01*
X152583995Y-58114028D01*
X152916307Y-57616687D01*
X153033000Y-57030033D01*
X153033000Y-56969967D01*
X152916307Y-56383313D01*
X152793822Y-56200000D01*
X162454599Y-56200000D01*
X162454599Y-58800000D01*
X162498737Y-59034576D01*
X162637372Y-59250019D01*
X162848903Y-59394553D01*
X163100000Y-59445401D01*
X165700000Y-59445401D01*
X165934576Y-59401263D01*
X166150019Y-59262628D01*
X166294553Y-59051097D01*
X166345401Y-58800000D01*
X166345401Y-56200000D01*
X166301263Y-55965424D01*
X166162628Y-55749981D01*
X165951097Y-55605447D01*
X165700000Y-55554599D01*
X163100000Y-55554599D01*
X162865424Y-55598737D01*
X162649981Y-55737372D01*
X162505447Y-55948903D01*
X162454599Y-56200000D01*
X152793822Y-56200000D01*
X152634333Y-55961309D01*
X152634576Y-55961263D01*
X152850019Y-55822628D01*
X152994553Y-55611097D01*
X153045401Y-55360000D01*
X153045401Y-55293000D01*
X155760000Y-55293000D01*
X156078776Y-55229592D01*
X156349020Y-55049020D01*
X158249020Y-53149020D01*
X158429592Y-52878776D01*
X158493000Y-52560000D01*
X158493000Y-49152504D01*
X158701358Y-49013284D01*
X159011993Y-48548385D01*
X159121074Y-48000000D01*
X159011993Y-47451615D01*
X158701358Y-46986716D01*
X158493000Y-46847496D01*
X158493000Y-45247639D01*
X158570669Y-45215547D01*
X158974130Y-44812789D01*
X159192751Y-44286292D01*
X159193248Y-43716209D01*
X158975547Y-43189331D01*
X158572789Y-42785870D01*
X158046292Y-42567249D01*
X157476209Y-42566752D01*
X156949331Y-42784453D01*
X156545870Y-43187211D01*
X156327249Y-43713708D01*
X156326752Y-44283791D01*
X156544453Y-44810669D01*
X156827000Y-45093709D01*
X156827000Y-46847496D01*
X156618642Y-46986716D01*
X156308007Y-47451615D01*
X156198926Y-48000000D01*
X156308007Y-48548385D01*
X156618642Y-49013284D01*
X156827000Y-49152504D01*
X156827000Y-52214960D01*
X155414960Y-53627000D01*
X153045401Y-53627000D01*
X153045401Y-53560000D01*
X153001263Y-53325424D01*
X152862628Y-53109981D01*
X152651097Y-52965447D01*
X152400000Y-52914599D01*
X150600000Y-52914599D01*
X150365424Y-52958737D01*
X150149981Y-53097372D01*
X150005447Y-53308903D01*
X149954599Y-53560000D01*
X136878040Y-53560000D01*
X138124020Y-52314020D01*
X138304592Y-52043776D01*
X138368000Y-51725000D01*
X138368000Y-49152504D01*
X138576358Y-49013284D01*
X138886993Y-48548385D01*
X138939624Y-48283791D01*
X146066752Y-48283791D01*
X146284453Y-48810669D01*
X146687211Y-49214130D01*
X147213708Y-49432751D01*
X147783791Y-49433248D01*
X148310669Y-49215547D01*
X148714130Y-48812789D01*
X148932751Y-48286292D01*
X148933223Y-47744817D01*
X150589020Y-46089020D01*
X150769592Y-45818776D01*
X150833000Y-45500000D01*
X150833000Y-37247320D01*
X151093526Y-37139673D01*
X151637762Y-36596386D01*
X151932664Y-35886184D01*
X151933335Y-35117189D01*
X151639673Y-34406474D01*
X151096386Y-33862238D01*
X150386184Y-33567336D01*
X149617189Y-33566665D01*
X148906474Y-33860327D01*
X148362238Y-34403614D01*
X148067336Y-35113816D01*
X148066665Y-35882811D01*
X148360327Y-36593526D01*
X148903614Y-37137762D01*
X149167000Y-37247130D01*
X149167000Y-45154960D01*
X147754739Y-46567221D01*
X147216209Y-46566752D01*
X146689331Y-46784453D01*
X146285870Y-47187211D01*
X146067249Y-47713708D01*
X146066752Y-48283791D01*
X138939624Y-48283791D01*
X138996074Y-48000000D01*
X138886993Y-47451615D01*
X138576358Y-46986716D01*
X138333000Y-46824110D01*
X138333000Y-45193255D01*
X138714130Y-44812789D01*
X138932751Y-44286292D01*
X138933248Y-43716209D01*
X138715547Y-43189331D01*
X138312789Y-42785870D01*
X137786292Y-42567249D01*
X137216209Y-42566752D01*
X136689331Y-42784453D01*
X136285870Y-43187211D01*
X136067249Y-43713708D01*
X136066752Y-44283791D01*
X136284453Y-44810669D01*
X136667000Y-45193884D01*
X136667000Y-46870882D01*
X136493642Y-46986716D01*
X136183007Y-47451615D01*
X136073926Y-48000000D01*
X136183007Y-48548385D01*
X136493642Y-49013284D01*
X136702000Y-49152504D01*
X136702000Y-51379960D01*
X134414960Y-53667000D01*
X133545401Y-53667000D01*
X133545401Y-53600000D01*
X133501263Y-53365424D01*
X133362628Y-53149981D01*
X133151097Y-53005447D01*
X132900000Y-52954599D01*
X131100000Y-52954599D01*
X130865424Y-52998737D01*
X130649981Y-53137372D01*
X130505447Y-53348903D01*
X130454599Y-53600000D01*
X125708000Y-53600000D01*
X125708000Y-48283791D01*
X125941752Y-48283791D01*
X126159453Y-48810669D01*
X126562211Y-49214130D01*
X127088708Y-49432751D01*
X127658791Y-49433248D01*
X128185669Y-49215547D01*
X128589130Y-48812789D01*
X128807751Y-48286292D01*
X128808223Y-47744817D01*
X130589020Y-45964020D01*
X130769592Y-45693775D01*
X130833000Y-45375000D01*
X130833000Y-37247320D01*
X131093526Y-37139673D01*
X131637762Y-36596386D01*
X131932664Y-35886184D01*
X131933335Y-35117189D01*
X131639673Y-34406474D01*
X131096386Y-33862238D01*
X130386184Y-33567336D01*
X129617189Y-33566665D01*
X128906474Y-33860327D01*
X128362238Y-34403614D01*
X128067336Y-35113816D01*
X128066665Y-35882811D01*
X128360327Y-36593526D01*
X128903614Y-37137762D01*
X129167000Y-37247130D01*
X129167000Y-45029960D01*
X127629739Y-46567221D01*
X127091209Y-46566752D01*
X126564331Y-46784453D01*
X126160870Y-47187211D01*
X125942249Y-47713708D01*
X125941752Y-48283791D01*
X125708000Y-48283791D01*
X125708000Y-30708000D01*
X169292000Y-30708000D01*
X169292000Y-74292000D01*
X169292000Y-74292000D01*
G37*
X169292000Y-74292000D02*
X125708000Y-74292000D01*
X125708000Y-68200000D01*
X128054599Y-68200000D01*
X128054599Y-70800000D01*
X128098737Y-71034576D01*
X128237372Y-71250019D01*
X128448903Y-71394553D01*
X128700000Y-71445401D01*
X131300000Y-71445401D01*
X131534576Y-71401263D01*
X131750019Y-71262628D01*
X131894553Y-71051097D01*
X131945401Y-70800000D01*
X131945401Y-69882811D01*
X133066665Y-69882811D01*
X133360327Y-70593526D01*
X133903614Y-71137762D01*
X134613816Y-71432664D01*
X135382811Y-71433335D01*
X136093526Y-71139673D01*
X136637762Y-70596386D01*
X136932664Y-69886184D01*
X136933335Y-69117189D01*
X136639673Y-68406474D01*
X136433560Y-68200000D01*
X148054599Y-68200000D01*
X148054599Y-70800000D01*
X148098737Y-71034576D01*
X148237372Y-71250019D01*
X148448903Y-71394553D01*
X148700000Y-71445401D01*
X151300000Y-71445401D01*
X151534576Y-71401263D01*
X151750019Y-71262628D01*
X151894553Y-71051097D01*
X151945401Y-70800000D01*
X151945401Y-69882811D01*
X153066665Y-69882811D01*
X153360327Y-70593526D01*
X153903614Y-71137762D01*
X154613816Y-71432664D01*
X155382811Y-71433335D01*
X156093526Y-71139673D01*
X156637762Y-70596386D01*
X156932664Y-69886184D01*
X156933335Y-69117189D01*
X156639673Y-68406474D01*
X156096386Y-67862238D01*
X155386184Y-67567336D01*
X154617189Y-67566665D01*
X153906474Y-67860327D01*
X153362238Y-68403614D01*
X153067336Y-69113816D01*
X153066665Y-69882811D01*
X151945401Y-69882811D01*
X151945401Y-68200000D01*
X151901263Y-67965424D01*
X151762628Y-67749981D01*
X151551097Y-67605447D01*
X151300000Y-67554599D01*
X148700000Y-67554599D01*
X148465424Y-67598737D01*
X148249981Y-67737372D01*
X148105447Y-67948903D01*
X148054599Y-68200000D01*
X136433560Y-68200000D01*
X136096386Y-67862238D01*
X135386184Y-67567336D01*
X134617189Y-67566665D01*
X133906474Y-67860327D01*
X133362238Y-68403614D01*
X133067336Y-69113816D01*
X133066665Y-69882811D01*
X131945401Y-69882811D01*
X131945401Y-68200000D01*
X131901263Y-67965424D01*
X131762628Y-67749981D01*
X131551097Y-67605447D01*
X131300000Y-67554599D01*
X128700000Y-67554599D01*
X128465424Y-67598737D01*
X128249981Y-67737372D01*
X128105447Y-67948903D01*
X128054599Y-68200000D01*
X125708000Y-68200000D01*
X125708000Y-53600000D01*
X130454599Y-53600000D01*
X130454599Y-55400000D01*
X130498737Y-55634576D01*
X130637372Y-55850019D01*
X130848903Y-55994553D01*
X130867645Y-55998348D01*
X130583693Y-56423313D01*
X130467000Y-57009967D01*
X130467000Y-57070033D01*
X130583693Y-57656687D01*
X130916005Y-58154028D01*
X131413346Y-58486340D01*
X132000000Y-58603033D01*
X132586654Y-58486340D01*
X133083995Y-58154028D01*
X133416307Y-57656687D01*
X133533000Y-57070033D01*
X133533000Y-57009967D01*
X133416307Y-56423313D01*
X133134333Y-56001309D01*
X133134576Y-56001263D01*
X133350019Y-55862628D01*
X133494553Y-55651097D01*
X133545401Y-55400000D01*
X133545401Y-55333000D01*
X134760000Y-55333000D01*
X135078776Y-55269592D01*
X135349020Y-55089020D01*
X136878040Y-53560000D01*
X149954599Y-53560000D01*
X149954599Y-55360000D01*
X149998737Y-55594576D01*
X150137372Y-55810019D01*
X150348903Y-55954553D01*
X150367645Y-55958348D01*
X150083693Y-56383313D01*
X149967000Y-56969967D01*
X149967000Y-57030033D01*
X150083693Y-57616687D01*
X150416005Y-58114028D01*
X150913346Y-58446340D01*
X151500000Y-58563033D01*
X152086654Y-58446340D01*
X152583995Y-58114028D01*
X152916307Y-57616687D01*
X153033000Y-57030033D01*
X153033000Y-56969967D01*
X152916307Y-56383313D01*
X152793822Y-56200000D01*
X162454599Y-56200000D01*
X162454599Y-58800000D01*
X162498737Y-59034576D01*
X162637372Y-59250019D01*
X162848903Y-59394553D01*
X163100000Y-59445401D01*
X165700000Y-59445401D01*
X165934576Y-59401263D01*
X166150019Y-59262628D01*
X166294553Y-59051097D01*
X166345401Y-58800000D01*
X166345401Y-56200000D01*
X166301263Y-55965424D01*
X166162628Y-55749981D01*
X165951097Y-55605447D01*
X165700000Y-55554599D01*
X163100000Y-55554599D01*
X162865424Y-55598737D01*
X162649981Y-55737372D01*
X162505447Y-55948903D01*
X162454599Y-56200000D01*
X152793822Y-56200000D01*
X152634333Y-55961309D01*
X152634576Y-55961263D01*
X152850019Y-55822628D01*
X152994553Y-55611097D01*
X153045401Y-55360000D01*
X153045401Y-55293000D01*
X155760000Y-55293000D01*
X156078776Y-55229592D01*
X156349020Y-55049020D01*
X158249020Y-53149020D01*
X158429592Y-52878776D01*
X158493000Y-52560000D01*
X158493000Y-49152504D01*
X158701358Y-49013284D01*
X159011993Y-48548385D01*
X159121074Y-48000000D01*
X159011993Y-47451615D01*
X158701358Y-46986716D01*
X158493000Y-46847496D01*
X158493000Y-45247639D01*
X158570669Y-45215547D01*
X158974130Y-44812789D01*
X159192751Y-44286292D01*
X159193248Y-43716209D01*
X158975547Y-43189331D01*
X158572789Y-42785870D01*
X158046292Y-42567249D01*
X157476209Y-42566752D01*
X156949331Y-42784453D01*
X156545870Y-43187211D01*
X156327249Y-43713708D01*
X156326752Y-44283791D01*
X156544453Y-44810669D01*
X156827000Y-45093709D01*
X156827000Y-46847496D01*
X156618642Y-46986716D01*
X156308007Y-47451615D01*
X156198926Y-48000000D01*
X156308007Y-48548385D01*
X156618642Y-49013284D01*
X156827000Y-49152504D01*
X156827000Y-52214960D01*
X155414960Y-53627000D01*
X153045401Y-53627000D01*
X153045401Y-53560000D01*
X153001263Y-53325424D01*
X152862628Y-53109981D01*
X152651097Y-52965447D01*
X152400000Y-52914599D01*
X150600000Y-52914599D01*
X150365424Y-52958737D01*
X150149981Y-53097372D01*
X150005447Y-53308903D01*
X149954599Y-53560000D01*
X136878040Y-53560000D01*
X138124020Y-52314020D01*
X138304592Y-52043776D01*
X138368000Y-51725000D01*
X138368000Y-49152504D01*
X138576358Y-49013284D01*
X138886993Y-48548385D01*
X138939624Y-48283791D01*
X146066752Y-48283791D01*
X146284453Y-48810669D01*
X146687211Y-49214130D01*
X147213708Y-49432751D01*
X147783791Y-49433248D01*
X148310669Y-49215547D01*
X148714130Y-48812789D01*
X148932751Y-48286292D01*
X148933223Y-47744817D01*
X150589020Y-46089020D01*
X150769592Y-45818776D01*
X150833000Y-45500000D01*
X150833000Y-37247320D01*
X151093526Y-37139673D01*
X151637762Y-36596386D01*
X151932664Y-35886184D01*
X151933335Y-35117189D01*
X151639673Y-34406474D01*
X151096386Y-33862238D01*
X150386184Y-33567336D01*
X149617189Y-33566665D01*
X148906474Y-33860327D01*
X148362238Y-34403614D01*
X148067336Y-35113816D01*
X148066665Y-35882811D01*
X148360327Y-36593526D01*
X148903614Y-37137762D01*
X149167000Y-37247130D01*
X149167000Y-45154960D01*
X147754739Y-46567221D01*
X147216209Y-46566752D01*
X146689331Y-46784453D01*
X146285870Y-47187211D01*
X146067249Y-47713708D01*
X146066752Y-48283791D01*
X138939624Y-48283791D01*
X138996074Y-48000000D01*
X138886993Y-47451615D01*
X138576358Y-46986716D01*
X138333000Y-46824110D01*
X138333000Y-45193255D01*
X138714130Y-44812789D01*
X138932751Y-44286292D01*
X138933248Y-43716209D01*
X138715547Y-43189331D01*
X138312789Y-42785870D01*
X137786292Y-42567249D01*
X137216209Y-42566752D01*
X136689331Y-42784453D01*
X136285870Y-43187211D01*
X136067249Y-43713708D01*
X136066752Y-44283791D01*
X136284453Y-44810669D01*
X136667000Y-45193884D01*
X136667000Y-46870882D01*
X136493642Y-46986716D01*
X136183007Y-47451615D01*
X136073926Y-48000000D01*
X136183007Y-48548385D01*
X136493642Y-49013284D01*
X136702000Y-49152504D01*
X136702000Y-51379960D01*
X134414960Y-53667000D01*
X133545401Y-53667000D01*
X133545401Y-53600000D01*
X133501263Y-53365424D01*
X133362628Y-53149981D01*
X133151097Y-53005447D01*
X132900000Y-52954599D01*
X131100000Y-52954599D01*
X130865424Y-52998737D01*
X130649981Y-53137372D01*
X130505447Y-53348903D01*
X130454599Y-53600000D01*
X125708000Y-53600000D01*
X125708000Y-48283791D01*
X125941752Y-48283791D01*
X126159453Y-48810669D01*
X126562211Y-49214130D01*
X127088708Y-49432751D01*
X127658791Y-49433248D01*
X128185669Y-49215547D01*
X128589130Y-48812789D01*
X128807751Y-48286292D01*
X128808223Y-47744817D01*
X130589020Y-45964020D01*
X130769592Y-45693775D01*
X130833000Y-45375000D01*
X130833000Y-37247320D01*
X131093526Y-37139673D01*
X131637762Y-36596386D01*
X131932664Y-35886184D01*
X131933335Y-35117189D01*
X131639673Y-34406474D01*
X131096386Y-33862238D01*
X130386184Y-33567336D01*
X129617189Y-33566665D01*
X128906474Y-33860327D01*
X128362238Y-34403614D01*
X128067336Y-35113816D01*
X128066665Y-35882811D01*
X128360327Y-36593526D01*
X128903614Y-37137762D01*
X129167000Y-37247130D01*
X129167000Y-45029960D01*
X127629739Y-46567221D01*
X127091209Y-46566752D01*
X126564331Y-46784453D01*
X126160870Y-47187211D01*
X125942249Y-47713708D01*
X125941752Y-48283791D01*
X125708000Y-48283791D01*
X125708000Y-30708000D01*
X169292000Y-30708000D01*
X169292000Y-74292000D01*
M02*
