M48
;DRILL file {KiCad 4.0.7} date 03/26/18 18:34:24
;FORMAT={-:-/ absolute / inch / decimal}
FMAT,2
INCH,TZ
T1C0.031
T2C0.039
T3C0.051
%
G90
G05
M72
T1
X5.0134Y-1.7323
X5.0148Y-1.8898
X5.4134Y-1.7323
X5.4148Y-1.8898
X5.8071Y-1.8898
X5.811Y-1.7323
X6.2071Y-1.8898
X6.211Y-1.7323
T2
X5.1969Y-2.1457
X5.1969Y-2.2457
X5.1969Y-2.3457
X5.9646Y-2.1441
X5.9646Y-2.2441
X5.9646Y-2.3441
T3
X5.1181Y-1.3976
X5.1181Y-2.7362
X5.315Y-1.3976
X5.315Y-2.7362
X5.9055Y-1.3976
X5.9055Y-2.7362
X6.1024Y-1.3976
X6.1024Y-2.7362
X6.4724Y-2.0669
X6.4724Y-2.2638
T0
M30
