G04 #@! TF.FileFunction,Copper,L1,Top,Signal*
%FSLAX46Y46*%
G04 Gerber Fmt 4.6, Leading zero omitted, Abs format (unit mm)*
G04 Created by KiCad (PCBNEW 4.0.7) date 03/26/18 18:34:16*
%MOMM*%
%LPD*%
G01*
G04 APERTURE LIST*
%ADD10C,0.100000*%
%ADD11C,0.150000*%
%ADD12R,1.800000X1.800000*%
%ADD13O,1.800000X1.800000*%
%ADD14R,2.600000X2.600000*%
%ADD15C,2.600000*%
%ADD16C,1.600000*%
%ADD17O,1.600000X1.600000*%
%ADD18C,0.400000*%
%ADD19C,0.500000*%
%ADD20C,0.300000*%
G04 APERTURE END LIST*
D10*
D11*
X125000000Y-75000000D02*
X125000000Y-30000000D01*
X170000000Y-75000000D02*
X125000000Y-75000000D01*
X170000000Y-30000000D02*
X170000000Y-75000000D01*
X125000000Y-30000000D02*
X170000000Y-30000000D01*
D12*
X132000000Y-54500000D03*
D13*
X132000000Y-57040000D03*
X132000000Y-59580000D03*
D14*
X135000000Y-35500000D03*
D15*
X130000000Y-35500000D03*
D14*
X130000000Y-69500000D03*
D15*
X135000000Y-69500000D03*
D14*
X155000000Y-35500000D03*
D15*
X150000000Y-35500000D03*
D14*
X150000000Y-69500000D03*
D15*
X155000000Y-69500000D03*
D14*
X164400000Y-57500000D03*
D15*
X164400000Y-52500000D03*
D12*
X151500000Y-54460000D03*
D13*
X151500000Y-57000000D03*
X151500000Y-59540000D03*
D16*
X127375000Y-48000000D03*
D17*
X137535000Y-48000000D03*
D16*
X137500000Y-44000000D03*
D17*
X127340000Y-44000000D03*
D16*
X147500000Y-48000000D03*
D17*
X157660000Y-48000000D03*
D16*
X157760000Y-44000000D03*
D17*
X147600000Y-44000000D03*
D18*
X150000000Y-69500000D02*
X150000000Y-67800000D01*
X150000000Y-67800000D02*
X148000000Y-65800000D01*
D19*
G36*
X169425000Y-74425000D02*
X133500000Y-74425000D01*
X133500000Y-59000000D01*
X137250000Y-59000000D01*
X137417091Y-58971254D01*
X137587271Y-58869119D01*
X137704306Y-58708820D01*
X137749756Y-58515617D01*
X137999756Y-50515617D01*
X137997070Y-50500000D01*
X144500000Y-50500000D01*
X144500000Y-72000000D01*
X144534195Y-72181729D01*
X144641596Y-72348635D01*
X144805472Y-72460607D01*
X145000000Y-72500000D01*
X153000000Y-72500000D01*
X153181729Y-72465805D01*
X153348635Y-72358404D01*
X153460607Y-72194528D01*
X153500000Y-72000000D01*
X153500000Y-59000000D01*
X158000000Y-59000000D01*
X158181729Y-58965805D01*
X158348635Y-58858404D01*
X158460607Y-58694528D01*
X158500000Y-58500000D01*
X158500000Y-52856471D01*
X162599688Y-52856471D01*
X162873145Y-53518286D01*
X163379051Y-54025076D01*
X164040387Y-54299687D01*
X164756471Y-54300312D01*
X165418286Y-54026855D01*
X165925076Y-53520949D01*
X166199687Y-52859613D01*
X166200312Y-52143529D01*
X165926855Y-51481714D01*
X165420949Y-50974924D01*
X164759613Y-50700313D01*
X164043529Y-50699688D01*
X163381714Y-50973145D01*
X162874924Y-51479051D01*
X162600313Y-52140387D01*
X162599688Y-52856471D01*
X158500000Y-52856471D01*
X158500000Y-50500000D01*
X158465805Y-50318271D01*
X158358404Y-50151365D01*
X158194528Y-50039393D01*
X158000000Y-50000000D01*
X145000000Y-50000000D01*
X144818271Y-50034195D01*
X144651365Y-50141596D01*
X144539393Y-50305472D01*
X144500000Y-50500000D01*
X137997070Y-50500000D01*
X137965805Y-50318271D01*
X137858404Y-50151365D01*
X137694528Y-50039393D01*
X137500000Y-50000000D01*
X125575000Y-50000000D01*
X125575000Y-48257452D01*
X126074774Y-48257452D01*
X126272271Y-48735429D01*
X126637647Y-49101444D01*
X127115279Y-49299774D01*
X127632452Y-49300226D01*
X128110429Y-49102729D01*
X128476444Y-48737353D01*
X128674774Y-48259721D01*
X128675000Y-48000000D01*
X136209531Y-48000000D01*
X136308488Y-48497488D01*
X136590292Y-48919239D01*
X137012043Y-49201043D01*
X137509531Y-49300000D01*
X137560469Y-49300000D01*
X138057957Y-49201043D01*
X138479708Y-48919239D01*
X138761512Y-48497488D01*
X138809258Y-48257452D01*
X146199774Y-48257452D01*
X146397271Y-48735429D01*
X146762647Y-49101444D01*
X147240279Y-49299774D01*
X147757452Y-49300226D01*
X148235429Y-49102729D01*
X148601444Y-48737353D01*
X148799774Y-48259721D01*
X148800000Y-48000000D01*
X156334531Y-48000000D01*
X156433488Y-48497488D01*
X156715292Y-48919239D01*
X157137043Y-49201043D01*
X157634531Y-49300000D01*
X157685469Y-49300000D01*
X158182957Y-49201043D01*
X158604708Y-48919239D01*
X158886512Y-48497488D01*
X158985469Y-48000000D01*
X158886512Y-47502512D01*
X158604708Y-47080761D01*
X158182957Y-46798957D01*
X157685469Y-46700000D01*
X157634531Y-46700000D01*
X157137043Y-46798957D01*
X156715292Y-47080761D01*
X156433488Y-47502512D01*
X156334531Y-48000000D01*
X148800000Y-48000000D01*
X148800226Y-47742548D01*
X148602729Y-47264571D01*
X148237353Y-46898556D01*
X147759721Y-46700226D01*
X147242548Y-46699774D01*
X146764571Y-46897271D01*
X146398556Y-47262647D01*
X146200226Y-47740279D01*
X146199774Y-48257452D01*
X138809258Y-48257452D01*
X138860469Y-48000000D01*
X138761512Y-47502512D01*
X138479708Y-47080761D01*
X138057957Y-46798957D01*
X137560469Y-46700000D01*
X137509531Y-46700000D01*
X137012043Y-46798957D01*
X136590292Y-47080761D01*
X136308488Y-47502512D01*
X136209531Y-48000000D01*
X128675000Y-48000000D01*
X128675226Y-47742548D01*
X128477729Y-47264571D01*
X128112353Y-46898556D01*
X127634721Y-46700226D01*
X127117548Y-46699774D01*
X126639571Y-46897271D01*
X126273556Y-47262647D01*
X126075226Y-47740279D01*
X126074774Y-48257452D01*
X125575000Y-48257452D01*
X125575000Y-44000000D01*
X126014531Y-44000000D01*
X126113488Y-44497488D01*
X126395292Y-44919239D01*
X126817043Y-45201043D01*
X127314531Y-45300000D01*
X127365469Y-45300000D01*
X127862957Y-45201043D01*
X128284708Y-44919239D01*
X128566512Y-44497488D01*
X128614258Y-44257452D01*
X136199774Y-44257452D01*
X136397271Y-44735429D01*
X136762647Y-45101444D01*
X137240279Y-45299774D01*
X137757452Y-45300226D01*
X138235429Y-45102729D01*
X138601444Y-44737353D01*
X138799774Y-44259721D01*
X138800000Y-44000000D01*
X146274531Y-44000000D01*
X146373488Y-44497488D01*
X146655292Y-44919239D01*
X147077043Y-45201043D01*
X147574531Y-45300000D01*
X147625469Y-45300000D01*
X148122957Y-45201043D01*
X148544708Y-44919239D01*
X148826512Y-44497488D01*
X148874258Y-44257452D01*
X156459774Y-44257452D01*
X156657271Y-44735429D01*
X157022647Y-45101444D01*
X157500279Y-45299774D01*
X158017452Y-45300226D01*
X158495429Y-45102729D01*
X158861444Y-44737353D01*
X159059774Y-44259721D01*
X159060226Y-43742548D01*
X158862729Y-43264571D01*
X158497353Y-42898556D01*
X158019721Y-42700226D01*
X157502548Y-42699774D01*
X157024571Y-42897271D01*
X156658556Y-43262647D01*
X156460226Y-43740279D01*
X156459774Y-44257452D01*
X148874258Y-44257452D01*
X148925469Y-44000000D01*
X148826512Y-43502512D01*
X148544708Y-43080761D01*
X148122957Y-42798957D01*
X147625469Y-42700000D01*
X147574531Y-42700000D01*
X147077043Y-42798957D01*
X146655292Y-43080761D01*
X146373488Y-43502512D01*
X146274531Y-44000000D01*
X138800000Y-44000000D01*
X138800226Y-43742548D01*
X138602729Y-43264571D01*
X138237353Y-42898556D01*
X137759721Y-42700226D01*
X137242548Y-42699774D01*
X136764571Y-42897271D01*
X136398556Y-43262647D01*
X136200226Y-43740279D01*
X136199774Y-44257452D01*
X128614258Y-44257452D01*
X128665469Y-44000000D01*
X128566512Y-43502512D01*
X128284708Y-43080761D01*
X127862957Y-42798957D01*
X127365469Y-42700000D01*
X127314531Y-42700000D01*
X126817043Y-42798957D01*
X126395292Y-43080761D01*
X126113488Y-43502512D01*
X126014531Y-44000000D01*
X125575000Y-44000000D01*
X125575000Y-35856471D01*
X128199688Y-35856471D01*
X128473145Y-36518286D01*
X128979051Y-37025076D01*
X129640387Y-37299687D01*
X130356471Y-37300312D01*
X131018286Y-37026855D01*
X131525076Y-36520949D01*
X131799687Y-35859613D01*
X131800312Y-35143529D01*
X131526855Y-34481714D01*
X131245633Y-34200000D01*
X133190205Y-34200000D01*
X133190205Y-36800000D01*
X133225069Y-36985289D01*
X133334575Y-37155465D01*
X133501661Y-37269630D01*
X133700000Y-37309795D01*
X136300000Y-37309795D01*
X136485289Y-37274931D01*
X136655465Y-37165425D01*
X136769630Y-36998339D01*
X136809795Y-36800000D01*
X136809795Y-35856471D01*
X148199688Y-35856471D01*
X148473145Y-36518286D01*
X148979051Y-37025076D01*
X149640387Y-37299687D01*
X150356471Y-37300312D01*
X151018286Y-37026855D01*
X151525076Y-36520949D01*
X151799687Y-35859613D01*
X151800312Y-35143529D01*
X151526855Y-34481714D01*
X151245633Y-34200000D01*
X153190205Y-34200000D01*
X153190205Y-36800000D01*
X153225069Y-36985289D01*
X153334575Y-37155465D01*
X153501661Y-37269630D01*
X153700000Y-37309795D01*
X156300000Y-37309795D01*
X156485289Y-37274931D01*
X156655465Y-37165425D01*
X156769630Y-36998339D01*
X156809795Y-36800000D01*
X156809795Y-34200000D01*
X156774931Y-34014711D01*
X156665425Y-33844535D01*
X156498339Y-33730370D01*
X156300000Y-33690205D01*
X153700000Y-33690205D01*
X153514711Y-33725069D01*
X153344535Y-33834575D01*
X153230370Y-34001661D01*
X153190205Y-34200000D01*
X151245633Y-34200000D01*
X151020949Y-33974924D01*
X150359613Y-33700313D01*
X149643529Y-33699688D01*
X148981714Y-33973145D01*
X148474924Y-34479051D01*
X148200313Y-35140387D01*
X148199688Y-35856471D01*
X136809795Y-35856471D01*
X136809795Y-34200000D01*
X136774931Y-34014711D01*
X136665425Y-33844535D01*
X136498339Y-33730370D01*
X136300000Y-33690205D01*
X133700000Y-33690205D01*
X133514711Y-33725069D01*
X133344535Y-33834575D01*
X133230370Y-34001661D01*
X133190205Y-34200000D01*
X131245633Y-34200000D01*
X131020949Y-33974924D01*
X130359613Y-33700313D01*
X129643529Y-33699688D01*
X128981714Y-33973145D01*
X128474924Y-34479051D01*
X128200313Y-35140387D01*
X128199688Y-35856471D01*
X125575000Y-35856471D01*
X125575000Y-30575000D01*
X169425000Y-30575000D01*
X169425000Y-74425000D01*
X169425000Y-74425000D01*
G37*
X169425000Y-74425000D02*
X133500000Y-74425000D01*
X133500000Y-59000000D01*
X137250000Y-59000000D01*
X137417091Y-58971254D01*
X137587271Y-58869119D01*
X137704306Y-58708820D01*
X137749756Y-58515617D01*
X137999756Y-50515617D01*
X137997070Y-50500000D01*
X144500000Y-50500000D01*
X144500000Y-72000000D01*
X144534195Y-72181729D01*
X144641596Y-72348635D01*
X144805472Y-72460607D01*
X145000000Y-72500000D01*
X153000000Y-72500000D01*
X153181729Y-72465805D01*
X153348635Y-72358404D01*
X153460607Y-72194528D01*
X153500000Y-72000000D01*
X153500000Y-59000000D01*
X158000000Y-59000000D01*
X158181729Y-58965805D01*
X158348635Y-58858404D01*
X158460607Y-58694528D01*
X158500000Y-58500000D01*
X158500000Y-52856471D01*
X162599688Y-52856471D01*
X162873145Y-53518286D01*
X163379051Y-54025076D01*
X164040387Y-54299687D01*
X164756471Y-54300312D01*
X165418286Y-54026855D01*
X165925076Y-53520949D01*
X166199687Y-52859613D01*
X166200312Y-52143529D01*
X165926855Y-51481714D01*
X165420949Y-50974924D01*
X164759613Y-50700313D01*
X164043529Y-50699688D01*
X163381714Y-50973145D01*
X162874924Y-51479051D01*
X162600313Y-52140387D01*
X162599688Y-52856471D01*
X158500000Y-52856471D01*
X158500000Y-50500000D01*
X158465805Y-50318271D01*
X158358404Y-50151365D01*
X158194528Y-50039393D01*
X158000000Y-50000000D01*
X145000000Y-50000000D01*
X144818271Y-50034195D01*
X144651365Y-50141596D01*
X144539393Y-50305472D01*
X144500000Y-50500000D01*
X137997070Y-50500000D01*
X137965805Y-50318271D01*
X137858404Y-50151365D01*
X137694528Y-50039393D01*
X137500000Y-50000000D01*
X125575000Y-50000000D01*
X125575000Y-48257452D01*
X126074774Y-48257452D01*
X126272271Y-48735429D01*
X126637647Y-49101444D01*
X127115279Y-49299774D01*
X127632452Y-49300226D01*
X128110429Y-49102729D01*
X128476444Y-48737353D01*
X128674774Y-48259721D01*
X128675000Y-48000000D01*
X136209531Y-48000000D01*
X136308488Y-48497488D01*
X136590292Y-48919239D01*
X137012043Y-49201043D01*
X137509531Y-49300000D01*
X137560469Y-49300000D01*
X138057957Y-49201043D01*
X138479708Y-48919239D01*
X138761512Y-48497488D01*
X138809258Y-48257452D01*
X146199774Y-48257452D01*
X146397271Y-48735429D01*
X146762647Y-49101444D01*
X147240279Y-49299774D01*
X147757452Y-49300226D01*
X148235429Y-49102729D01*
X148601444Y-48737353D01*
X148799774Y-48259721D01*
X148800000Y-48000000D01*
X156334531Y-48000000D01*
X156433488Y-48497488D01*
X156715292Y-48919239D01*
X157137043Y-49201043D01*
X157634531Y-49300000D01*
X157685469Y-49300000D01*
X158182957Y-49201043D01*
X158604708Y-48919239D01*
X158886512Y-48497488D01*
X158985469Y-48000000D01*
X158886512Y-47502512D01*
X158604708Y-47080761D01*
X158182957Y-46798957D01*
X157685469Y-46700000D01*
X157634531Y-46700000D01*
X157137043Y-46798957D01*
X156715292Y-47080761D01*
X156433488Y-47502512D01*
X156334531Y-48000000D01*
X148800000Y-48000000D01*
X148800226Y-47742548D01*
X148602729Y-47264571D01*
X148237353Y-46898556D01*
X147759721Y-46700226D01*
X147242548Y-46699774D01*
X146764571Y-46897271D01*
X146398556Y-47262647D01*
X146200226Y-47740279D01*
X146199774Y-48257452D01*
X138809258Y-48257452D01*
X138860469Y-48000000D01*
X138761512Y-47502512D01*
X138479708Y-47080761D01*
X138057957Y-46798957D01*
X137560469Y-46700000D01*
X137509531Y-46700000D01*
X137012043Y-46798957D01*
X136590292Y-47080761D01*
X136308488Y-47502512D01*
X136209531Y-48000000D01*
X128675000Y-48000000D01*
X128675226Y-47742548D01*
X128477729Y-47264571D01*
X128112353Y-46898556D01*
X127634721Y-46700226D01*
X127117548Y-46699774D01*
X126639571Y-46897271D01*
X126273556Y-47262647D01*
X126075226Y-47740279D01*
X126074774Y-48257452D01*
X125575000Y-48257452D01*
X125575000Y-44000000D01*
X126014531Y-44000000D01*
X126113488Y-44497488D01*
X126395292Y-44919239D01*
X126817043Y-45201043D01*
X127314531Y-45300000D01*
X127365469Y-45300000D01*
X127862957Y-45201043D01*
X128284708Y-44919239D01*
X128566512Y-44497488D01*
X128614258Y-44257452D01*
X136199774Y-44257452D01*
X136397271Y-44735429D01*
X136762647Y-45101444D01*
X137240279Y-45299774D01*
X137757452Y-45300226D01*
X138235429Y-45102729D01*
X138601444Y-44737353D01*
X138799774Y-44259721D01*
X138800000Y-44000000D01*
X146274531Y-44000000D01*
X146373488Y-44497488D01*
X146655292Y-44919239D01*
X147077043Y-45201043D01*
X147574531Y-45300000D01*
X147625469Y-45300000D01*
X148122957Y-45201043D01*
X148544708Y-44919239D01*
X148826512Y-44497488D01*
X148874258Y-44257452D01*
X156459774Y-44257452D01*
X156657271Y-44735429D01*
X157022647Y-45101444D01*
X157500279Y-45299774D01*
X158017452Y-45300226D01*
X158495429Y-45102729D01*
X158861444Y-44737353D01*
X159059774Y-44259721D01*
X159060226Y-43742548D01*
X158862729Y-43264571D01*
X158497353Y-42898556D01*
X158019721Y-42700226D01*
X157502548Y-42699774D01*
X157024571Y-42897271D01*
X156658556Y-43262647D01*
X156460226Y-43740279D01*
X156459774Y-44257452D01*
X148874258Y-44257452D01*
X148925469Y-44000000D01*
X148826512Y-43502512D01*
X148544708Y-43080761D01*
X148122957Y-42798957D01*
X147625469Y-42700000D01*
X147574531Y-42700000D01*
X147077043Y-42798957D01*
X146655292Y-43080761D01*
X146373488Y-43502512D01*
X146274531Y-44000000D01*
X138800000Y-44000000D01*
X138800226Y-43742548D01*
X138602729Y-43264571D01*
X138237353Y-42898556D01*
X137759721Y-42700226D01*
X137242548Y-42699774D01*
X136764571Y-42897271D01*
X136398556Y-43262647D01*
X136200226Y-43740279D01*
X136199774Y-44257452D01*
X128614258Y-44257452D01*
X128665469Y-44000000D01*
X128566512Y-43502512D01*
X128284708Y-43080761D01*
X127862957Y-42798957D01*
X127365469Y-42700000D01*
X127314531Y-42700000D01*
X126817043Y-42798957D01*
X126395292Y-43080761D01*
X126113488Y-43502512D01*
X126014531Y-44000000D01*
X125575000Y-44000000D01*
X125575000Y-35856471D01*
X128199688Y-35856471D01*
X128473145Y-36518286D01*
X128979051Y-37025076D01*
X129640387Y-37299687D01*
X130356471Y-37300312D01*
X131018286Y-37026855D01*
X131525076Y-36520949D01*
X131799687Y-35859613D01*
X131800312Y-35143529D01*
X131526855Y-34481714D01*
X131245633Y-34200000D01*
X133190205Y-34200000D01*
X133190205Y-36800000D01*
X133225069Y-36985289D01*
X133334575Y-37155465D01*
X133501661Y-37269630D01*
X133700000Y-37309795D01*
X136300000Y-37309795D01*
X136485289Y-37274931D01*
X136655465Y-37165425D01*
X136769630Y-36998339D01*
X136809795Y-36800000D01*
X136809795Y-35856471D01*
X148199688Y-35856471D01*
X148473145Y-36518286D01*
X148979051Y-37025076D01*
X149640387Y-37299687D01*
X150356471Y-37300312D01*
X151018286Y-37026855D01*
X151525076Y-36520949D01*
X151799687Y-35859613D01*
X151800312Y-35143529D01*
X151526855Y-34481714D01*
X151245633Y-34200000D01*
X153190205Y-34200000D01*
X153190205Y-36800000D01*
X153225069Y-36985289D01*
X153334575Y-37155465D01*
X153501661Y-37269630D01*
X153700000Y-37309795D01*
X156300000Y-37309795D01*
X156485289Y-37274931D01*
X156655465Y-37165425D01*
X156769630Y-36998339D01*
X156809795Y-36800000D01*
X156809795Y-34200000D01*
X156774931Y-34014711D01*
X156665425Y-33844535D01*
X156498339Y-33730370D01*
X156300000Y-33690205D01*
X153700000Y-33690205D01*
X153514711Y-33725069D01*
X153344535Y-33834575D01*
X153230370Y-34001661D01*
X153190205Y-34200000D01*
X151245633Y-34200000D01*
X151020949Y-33974924D01*
X150359613Y-33700313D01*
X149643529Y-33699688D01*
X148981714Y-33973145D01*
X148474924Y-34479051D01*
X148200313Y-35140387D01*
X148199688Y-35856471D01*
X136809795Y-35856471D01*
X136809795Y-34200000D01*
X136774931Y-34014711D01*
X136665425Y-33844535D01*
X136498339Y-33730370D01*
X136300000Y-33690205D01*
X133700000Y-33690205D01*
X133514711Y-33725069D01*
X133344535Y-33834575D01*
X133230370Y-34001661D01*
X133190205Y-34200000D01*
X131245633Y-34200000D01*
X131020949Y-33974924D01*
X130359613Y-33700313D01*
X129643529Y-33699688D01*
X128981714Y-33973145D01*
X128474924Y-34479051D01*
X128200313Y-35140387D01*
X128199688Y-35856471D01*
X125575000Y-35856471D01*
X125575000Y-30575000D01*
X169425000Y-30575000D01*
X169425000Y-74425000D01*
D20*
G36*
X157850000Y-58350000D02*
X153000000Y-58350000D01*
X152941642Y-58361818D01*
X152892479Y-58395409D01*
X152860258Y-58445481D01*
X152850000Y-58500000D01*
X152850000Y-71850000D01*
X145150000Y-71850000D01*
X145150000Y-59514531D01*
X150200000Y-59514531D01*
X150200000Y-59565469D01*
X150298957Y-60062957D01*
X150580761Y-60484708D01*
X151002512Y-60766512D01*
X151500000Y-60865469D01*
X151997488Y-60766512D01*
X152419239Y-60484708D01*
X152701043Y-60062957D01*
X152800000Y-59565469D01*
X152800000Y-59514531D01*
X152701043Y-59017043D01*
X152419239Y-58595292D01*
X151997488Y-58313488D01*
X151500000Y-58214531D01*
X151002512Y-58313488D01*
X150580761Y-58595292D01*
X150298957Y-59017043D01*
X150200000Y-59514531D01*
X145150000Y-59514531D01*
X145150000Y-53560000D01*
X150192164Y-53560000D01*
X150192164Y-55360000D01*
X150220056Y-55508231D01*
X150307660Y-55644372D01*
X150441329Y-55735704D01*
X150600000Y-55767836D01*
X152400000Y-55767836D01*
X152548231Y-55739944D01*
X152684372Y-55652340D01*
X152775704Y-55518671D01*
X152807836Y-55360000D01*
X152807836Y-53560000D01*
X152779944Y-53411769D01*
X152692340Y-53275628D01*
X152558671Y-53184296D01*
X152400000Y-53152164D01*
X150600000Y-53152164D01*
X150451769Y-53180056D01*
X150315628Y-53267660D01*
X150224296Y-53401329D01*
X150192164Y-53560000D01*
X145150000Y-53560000D01*
X145150000Y-50650000D01*
X157850000Y-50650000D01*
X157850000Y-58350000D01*
X157850000Y-58350000D01*
G37*
X157850000Y-58350000D02*
X153000000Y-58350000D01*
X152941642Y-58361818D01*
X152892479Y-58395409D01*
X152860258Y-58445481D01*
X152850000Y-58500000D01*
X152850000Y-71850000D01*
X145150000Y-71850000D01*
X145150000Y-59514531D01*
X150200000Y-59514531D01*
X150200000Y-59565469D01*
X150298957Y-60062957D01*
X150580761Y-60484708D01*
X151002512Y-60766512D01*
X151500000Y-60865469D01*
X151997488Y-60766512D01*
X152419239Y-60484708D01*
X152701043Y-60062957D01*
X152800000Y-59565469D01*
X152800000Y-59514531D01*
X152701043Y-59017043D01*
X152419239Y-58595292D01*
X151997488Y-58313488D01*
X151500000Y-58214531D01*
X151002512Y-58313488D01*
X150580761Y-58595292D01*
X150298957Y-59017043D01*
X150200000Y-59514531D01*
X145150000Y-59514531D01*
X145150000Y-53560000D01*
X150192164Y-53560000D01*
X150192164Y-55360000D01*
X150220056Y-55508231D01*
X150307660Y-55644372D01*
X150441329Y-55735704D01*
X150600000Y-55767836D01*
X152400000Y-55767836D01*
X152548231Y-55739944D01*
X152684372Y-55652340D01*
X152775704Y-55518671D01*
X152807836Y-55360000D01*
X152807836Y-53560000D01*
X152779944Y-53411769D01*
X152692340Y-53275628D01*
X152558671Y-53184296D01*
X152400000Y-53152164D01*
X150600000Y-53152164D01*
X150451769Y-53180056D01*
X150315628Y-53267660D01*
X150224296Y-53401329D01*
X150192164Y-53560000D01*
X145150000Y-53560000D01*
X145150000Y-50650000D01*
X157850000Y-50650000D01*
X157850000Y-58350000D01*
G36*
X137104614Y-58350000D02*
X133000000Y-58350000D01*
X132941642Y-58361818D01*
X132892479Y-58395409D01*
X132860258Y-58445481D01*
X132850000Y-58500000D01*
X132850000Y-58589028D01*
X132497488Y-58353488D01*
X132000000Y-58254531D01*
X131502512Y-58353488D01*
X131080761Y-58635292D01*
X130798957Y-59057043D01*
X130700000Y-59554531D01*
X130700000Y-59605469D01*
X130798957Y-60102957D01*
X131080761Y-60524708D01*
X131502512Y-60806512D01*
X132000000Y-60905469D01*
X132497488Y-60806512D01*
X132850000Y-60570972D01*
X132850000Y-74525000D01*
X125475000Y-74525000D01*
X125475000Y-53600000D01*
X130692164Y-53600000D01*
X130692164Y-55400000D01*
X130720056Y-55548231D01*
X130807660Y-55684372D01*
X130941329Y-55775704D01*
X131100000Y-55807836D01*
X132900000Y-55807836D01*
X133048231Y-55779944D01*
X133184372Y-55692340D01*
X133275704Y-55558671D01*
X133307836Y-55400000D01*
X133307836Y-53600000D01*
X133279944Y-53451769D01*
X133192340Y-53315628D01*
X133058671Y-53224296D01*
X132900000Y-53192164D01*
X131100000Y-53192164D01*
X130951769Y-53220056D01*
X130815628Y-53307660D01*
X130724296Y-53441329D01*
X130692164Y-53600000D01*
X125475000Y-53600000D01*
X125475000Y-50650000D01*
X137345239Y-50650000D01*
X137104614Y-58350000D01*
X137104614Y-58350000D01*
G37*
X137104614Y-58350000D02*
X133000000Y-58350000D01*
X132941642Y-58361818D01*
X132892479Y-58395409D01*
X132860258Y-58445481D01*
X132850000Y-58500000D01*
X132850000Y-58589028D01*
X132497488Y-58353488D01*
X132000000Y-58254531D01*
X131502512Y-58353488D01*
X131080761Y-58635292D01*
X130798957Y-59057043D01*
X130700000Y-59554531D01*
X130700000Y-59605469D01*
X130798957Y-60102957D01*
X131080761Y-60524708D01*
X131502512Y-60806512D01*
X132000000Y-60905469D01*
X132497488Y-60806512D01*
X132850000Y-60570972D01*
X132850000Y-74525000D01*
X125475000Y-74525000D01*
X125475000Y-53600000D01*
X130692164Y-53600000D01*
X130692164Y-55400000D01*
X130720056Y-55548231D01*
X130807660Y-55684372D01*
X130941329Y-55775704D01*
X131100000Y-55807836D01*
X132900000Y-55807836D01*
X133048231Y-55779944D01*
X133184372Y-55692340D01*
X133275704Y-55558671D01*
X133307836Y-55400000D01*
X133307836Y-53600000D01*
X133279944Y-53451769D01*
X133192340Y-53315628D01*
X133058671Y-53224296D01*
X132900000Y-53192164D01*
X131100000Y-53192164D01*
X130951769Y-53220056D01*
X130815628Y-53307660D01*
X130724296Y-53441329D01*
X130692164Y-53600000D01*
X125475000Y-53600000D01*
X125475000Y-50650000D01*
X137345239Y-50650000D01*
X137104614Y-58350000D01*
G36*
X132350000Y-74350000D02*
X127150000Y-74350000D01*
X127150000Y-66650000D01*
X132350000Y-66650000D01*
X132350000Y-74350000D01*
X132350000Y-74350000D01*
G37*
X132350000Y-74350000D02*
X127150000Y-74350000D01*
X127150000Y-66650000D01*
X132350000Y-66650000D01*
X132350000Y-74350000D01*
M02*
