G04 #@! TF.FileFunction,Copper,L1,Top,Signal*
%FSLAX46Y46*%
G04 Gerber Fmt 4.6, Leading zero omitted, Abs format (unit mm)*
G04 Created by KiCad (PCBNEW 4.0.7) date 05/14/18 22:33:48*
%MOMM*%
%LPD*%
G01*
G04 APERTURE LIST*
%ADD10C,0.100000*%
%ADD11C,0.150000*%
%ADD12R,1.800000X1.800000*%
%ADD13O,1.800000X1.800000*%
%ADD14R,2.600000X2.600000*%
%ADD15C,2.600000*%
%ADD16C,1.600000*%
%ADD17O,1.600000X1.600000*%
%ADD18C,0.400000*%
%ADD19C,0.500000*%
%ADD20C,0.300000*%
G04 APERTURE END LIST*
D10*
D11*
X125000000Y-75000000D02*
X125000000Y-30000000D01*
X170000000Y-75000000D02*
X125000000Y-75000000D01*
X170000000Y-30000000D02*
X170000000Y-75000000D01*
X125000000Y-30000000D02*
X170000000Y-30000000D01*
D12*
X132000000Y-54500000D03*
D13*
X132000000Y-57040000D03*
X132000000Y-59580000D03*
D14*
X135000000Y-35500000D03*
D15*
X130000000Y-35500000D03*
D14*
X130000000Y-69400000D03*
D15*
X135000000Y-69400000D03*
D14*
X155000000Y-35500000D03*
D15*
X150000000Y-35500000D03*
D14*
X150000000Y-69500000D03*
D15*
X155000000Y-69500000D03*
D14*
X164400000Y-57500000D03*
D15*
X164400000Y-52500000D03*
D12*
X151500000Y-54460000D03*
D13*
X151500000Y-57000000D03*
X151500000Y-59540000D03*
D16*
X127375000Y-48000000D03*
D17*
X137535000Y-48000000D03*
D16*
X137500000Y-44000000D03*
D17*
X127340000Y-44000000D03*
D16*
X147500000Y-48000000D03*
D17*
X157660000Y-48000000D03*
D16*
X157760000Y-44000000D03*
D17*
X147600000Y-44000000D03*
D18*
X150000000Y-69500000D02*
X150000000Y-67800000D01*
X150000000Y-67800000D02*
X148000000Y-65800000D01*
D19*
G36*
X169275000Y-74275000D02*
X133650000Y-74275000D01*
X133650000Y-59150000D01*
X137250000Y-59150000D01*
X137467218Y-59112631D01*
X137688452Y-58979854D01*
X137840598Y-58771466D01*
X137899683Y-58520303D01*
X138149683Y-50520303D01*
X138146191Y-50500000D01*
X144350000Y-50500000D01*
X144350000Y-72000000D01*
X144394453Y-72236247D01*
X144534075Y-72453226D01*
X144747114Y-72598789D01*
X145000000Y-72650000D01*
X153000000Y-72650000D01*
X153236247Y-72605547D01*
X153453226Y-72465925D01*
X153598789Y-72252886D01*
X153650000Y-72000000D01*
X153650000Y-59150000D01*
X158000000Y-59150000D01*
X158236247Y-59105547D01*
X158453226Y-58965925D01*
X158598789Y-58752886D01*
X158650000Y-58500000D01*
X158650000Y-52886177D01*
X162449662Y-52886177D01*
X162745906Y-53603143D01*
X163293971Y-54152166D01*
X164010419Y-54449661D01*
X164786177Y-54450338D01*
X165503143Y-54154094D01*
X166052166Y-53606029D01*
X166349661Y-52889581D01*
X166350338Y-52113823D01*
X166054094Y-51396857D01*
X165506029Y-50847834D01*
X164789581Y-50550339D01*
X164013823Y-50549662D01*
X163296857Y-50845906D01*
X162747834Y-51393971D01*
X162450339Y-52110419D01*
X162449662Y-52886177D01*
X158650000Y-52886177D01*
X158650000Y-50500000D01*
X158605547Y-50263753D01*
X158465925Y-50046774D01*
X158252886Y-49901211D01*
X158000000Y-49850000D01*
X145000000Y-49850000D01*
X144763753Y-49894453D01*
X144546774Y-50034075D01*
X144401211Y-50247114D01*
X144350000Y-50500000D01*
X138146191Y-50500000D01*
X138105547Y-50263753D01*
X137965925Y-50046774D01*
X137752886Y-49901211D01*
X137500000Y-49850000D01*
X125725000Y-49850000D01*
X125725000Y-48287157D01*
X125924749Y-48287157D01*
X126145033Y-48820286D01*
X126552569Y-49228533D01*
X127085312Y-49449748D01*
X127662157Y-49450251D01*
X128195286Y-49229967D01*
X128603533Y-48822431D01*
X128824748Y-48289688D01*
X128825000Y-48000000D01*
X136056593Y-48000000D01*
X136166968Y-48554891D01*
X136481288Y-49025305D01*
X136951702Y-49339625D01*
X137506593Y-49450000D01*
X137563407Y-49450000D01*
X138118298Y-49339625D01*
X138588712Y-49025305D01*
X138903032Y-48554891D01*
X138956287Y-48287157D01*
X146049749Y-48287157D01*
X146270033Y-48820286D01*
X146677569Y-49228533D01*
X147210312Y-49449748D01*
X147787157Y-49450251D01*
X148320286Y-49229967D01*
X148728533Y-48822431D01*
X148949748Y-48289688D01*
X148950000Y-48000000D01*
X156181593Y-48000000D01*
X156291968Y-48554891D01*
X156606288Y-49025305D01*
X157076702Y-49339625D01*
X157631593Y-49450000D01*
X157688407Y-49450000D01*
X158243298Y-49339625D01*
X158713712Y-49025305D01*
X159028032Y-48554891D01*
X159138407Y-48000000D01*
X159028032Y-47445109D01*
X158713712Y-46974695D01*
X158243298Y-46660375D01*
X157688407Y-46550000D01*
X157631593Y-46550000D01*
X157076702Y-46660375D01*
X156606288Y-46974695D01*
X156291968Y-47445109D01*
X156181593Y-48000000D01*
X148950000Y-48000000D01*
X148950251Y-47712843D01*
X148729967Y-47179714D01*
X148322431Y-46771467D01*
X147789688Y-46550252D01*
X147212843Y-46549749D01*
X146679714Y-46770033D01*
X146271467Y-47177569D01*
X146050252Y-47710312D01*
X146049749Y-48287157D01*
X138956287Y-48287157D01*
X139013407Y-48000000D01*
X138903032Y-47445109D01*
X138588712Y-46974695D01*
X138118298Y-46660375D01*
X137563407Y-46550000D01*
X137506593Y-46550000D01*
X136951702Y-46660375D01*
X136481288Y-46974695D01*
X136166968Y-47445109D01*
X136056593Y-48000000D01*
X128825000Y-48000000D01*
X128825251Y-47712843D01*
X128604967Y-47179714D01*
X128197431Y-46771467D01*
X127664688Y-46550252D01*
X127087843Y-46549749D01*
X126554714Y-46770033D01*
X126146467Y-47177569D01*
X125925252Y-47710312D01*
X125924749Y-48287157D01*
X125725000Y-48287157D01*
X125725000Y-44000000D01*
X125861593Y-44000000D01*
X125971968Y-44554891D01*
X126286288Y-45025305D01*
X126756702Y-45339625D01*
X127311593Y-45450000D01*
X127368407Y-45450000D01*
X127923298Y-45339625D01*
X128393712Y-45025305D01*
X128708032Y-44554891D01*
X128761287Y-44287157D01*
X136049749Y-44287157D01*
X136270033Y-44820286D01*
X136677569Y-45228533D01*
X137210312Y-45449748D01*
X137787157Y-45450251D01*
X138320286Y-45229967D01*
X138728533Y-44822431D01*
X138949748Y-44289688D01*
X138950000Y-44000000D01*
X146121593Y-44000000D01*
X146231968Y-44554891D01*
X146546288Y-45025305D01*
X147016702Y-45339625D01*
X147571593Y-45450000D01*
X147628407Y-45450000D01*
X148183298Y-45339625D01*
X148653712Y-45025305D01*
X148968032Y-44554891D01*
X149021287Y-44287157D01*
X156309749Y-44287157D01*
X156530033Y-44820286D01*
X156937569Y-45228533D01*
X157470312Y-45449748D01*
X158047157Y-45450251D01*
X158580286Y-45229967D01*
X158988533Y-44822431D01*
X159209748Y-44289688D01*
X159210251Y-43712843D01*
X158989967Y-43179714D01*
X158582431Y-42771467D01*
X158049688Y-42550252D01*
X157472843Y-42549749D01*
X156939714Y-42770033D01*
X156531467Y-43177569D01*
X156310252Y-43710312D01*
X156309749Y-44287157D01*
X149021287Y-44287157D01*
X149078407Y-44000000D01*
X148968032Y-43445109D01*
X148653712Y-42974695D01*
X148183298Y-42660375D01*
X147628407Y-42550000D01*
X147571593Y-42550000D01*
X147016702Y-42660375D01*
X146546288Y-42974695D01*
X146231968Y-43445109D01*
X146121593Y-44000000D01*
X138950000Y-44000000D01*
X138950251Y-43712843D01*
X138729967Y-43179714D01*
X138322431Y-42771467D01*
X137789688Y-42550252D01*
X137212843Y-42549749D01*
X136679714Y-42770033D01*
X136271467Y-43177569D01*
X136050252Y-43710312D01*
X136049749Y-44287157D01*
X128761287Y-44287157D01*
X128818407Y-44000000D01*
X128708032Y-43445109D01*
X128393712Y-42974695D01*
X127923298Y-42660375D01*
X127368407Y-42550000D01*
X127311593Y-42550000D01*
X126756702Y-42660375D01*
X126286288Y-42974695D01*
X125971968Y-43445109D01*
X125861593Y-44000000D01*
X125725000Y-44000000D01*
X125725000Y-35886177D01*
X128049662Y-35886177D01*
X128345906Y-36603143D01*
X128893971Y-37152166D01*
X129610419Y-37449661D01*
X130386177Y-37450338D01*
X131103143Y-37154094D01*
X131652166Y-36606029D01*
X131949661Y-35889581D01*
X131950338Y-35113823D01*
X131654094Y-34396857D01*
X131457581Y-34200000D01*
X133037266Y-34200000D01*
X133037266Y-36800000D01*
X133082590Y-37040876D01*
X133224947Y-37262105D01*
X133442159Y-37410520D01*
X133700000Y-37462734D01*
X136300000Y-37462734D01*
X136540876Y-37417410D01*
X136762105Y-37275053D01*
X136910520Y-37057841D01*
X136962734Y-36800000D01*
X136962734Y-35886177D01*
X148049662Y-35886177D01*
X148345906Y-36603143D01*
X148893971Y-37152166D01*
X149610419Y-37449661D01*
X150386177Y-37450338D01*
X151103143Y-37154094D01*
X151652166Y-36606029D01*
X151949661Y-35889581D01*
X151950338Y-35113823D01*
X151654094Y-34396857D01*
X151457581Y-34200000D01*
X153037266Y-34200000D01*
X153037266Y-36800000D01*
X153082590Y-37040876D01*
X153224947Y-37262105D01*
X153442159Y-37410520D01*
X153700000Y-37462734D01*
X156300000Y-37462734D01*
X156540876Y-37417410D01*
X156762105Y-37275053D01*
X156910520Y-37057841D01*
X156962734Y-36800000D01*
X156962734Y-34200000D01*
X156917410Y-33959124D01*
X156775053Y-33737895D01*
X156557841Y-33589480D01*
X156300000Y-33537266D01*
X153700000Y-33537266D01*
X153459124Y-33582590D01*
X153237895Y-33724947D01*
X153089480Y-33942159D01*
X153037266Y-34200000D01*
X151457581Y-34200000D01*
X151106029Y-33847834D01*
X150389581Y-33550339D01*
X149613823Y-33549662D01*
X148896857Y-33845906D01*
X148347834Y-34393971D01*
X148050339Y-35110419D01*
X148049662Y-35886177D01*
X136962734Y-35886177D01*
X136962734Y-34200000D01*
X136917410Y-33959124D01*
X136775053Y-33737895D01*
X136557841Y-33589480D01*
X136300000Y-33537266D01*
X133700000Y-33537266D01*
X133459124Y-33582590D01*
X133237895Y-33724947D01*
X133089480Y-33942159D01*
X133037266Y-34200000D01*
X131457581Y-34200000D01*
X131106029Y-33847834D01*
X130389581Y-33550339D01*
X129613823Y-33549662D01*
X128896857Y-33845906D01*
X128347834Y-34393971D01*
X128050339Y-35110419D01*
X128049662Y-35886177D01*
X125725000Y-35886177D01*
X125725000Y-30725000D01*
X169275000Y-30725000D01*
X169275000Y-74275000D01*
X169275000Y-74275000D01*
G37*
X169275000Y-74275000D02*
X133650000Y-74275000D01*
X133650000Y-59150000D01*
X137250000Y-59150000D01*
X137467218Y-59112631D01*
X137688452Y-58979854D01*
X137840598Y-58771466D01*
X137899683Y-58520303D01*
X138149683Y-50520303D01*
X138146191Y-50500000D01*
X144350000Y-50500000D01*
X144350000Y-72000000D01*
X144394453Y-72236247D01*
X144534075Y-72453226D01*
X144747114Y-72598789D01*
X145000000Y-72650000D01*
X153000000Y-72650000D01*
X153236247Y-72605547D01*
X153453226Y-72465925D01*
X153598789Y-72252886D01*
X153650000Y-72000000D01*
X153650000Y-59150000D01*
X158000000Y-59150000D01*
X158236247Y-59105547D01*
X158453226Y-58965925D01*
X158598789Y-58752886D01*
X158650000Y-58500000D01*
X158650000Y-52886177D01*
X162449662Y-52886177D01*
X162745906Y-53603143D01*
X163293971Y-54152166D01*
X164010419Y-54449661D01*
X164786177Y-54450338D01*
X165503143Y-54154094D01*
X166052166Y-53606029D01*
X166349661Y-52889581D01*
X166350338Y-52113823D01*
X166054094Y-51396857D01*
X165506029Y-50847834D01*
X164789581Y-50550339D01*
X164013823Y-50549662D01*
X163296857Y-50845906D01*
X162747834Y-51393971D01*
X162450339Y-52110419D01*
X162449662Y-52886177D01*
X158650000Y-52886177D01*
X158650000Y-50500000D01*
X158605547Y-50263753D01*
X158465925Y-50046774D01*
X158252886Y-49901211D01*
X158000000Y-49850000D01*
X145000000Y-49850000D01*
X144763753Y-49894453D01*
X144546774Y-50034075D01*
X144401211Y-50247114D01*
X144350000Y-50500000D01*
X138146191Y-50500000D01*
X138105547Y-50263753D01*
X137965925Y-50046774D01*
X137752886Y-49901211D01*
X137500000Y-49850000D01*
X125725000Y-49850000D01*
X125725000Y-48287157D01*
X125924749Y-48287157D01*
X126145033Y-48820286D01*
X126552569Y-49228533D01*
X127085312Y-49449748D01*
X127662157Y-49450251D01*
X128195286Y-49229967D01*
X128603533Y-48822431D01*
X128824748Y-48289688D01*
X128825000Y-48000000D01*
X136056593Y-48000000D01*
X136166968Y-48554891D01*
X136481288Y-49025305D01*
X136951702Y-49339625D01*
X137506593Y-49450000D01*
X137563407Y-49450000D01*
X138118298Y-49339625D01*
X138588712Y-49025305D01*
X138903032Y-48554891D01*
X138956287Y-48287157D01*
X146049749Y-48287157D01*
X146270033Y-48820286D01*
X146677569Y-49228533D01*
X147210312Y-49449748D01*
X147787157Y-49450251D01*
X148320286Y-49229967D01*
X148728533Y-48822431D01*
X148949748Y-48289688D01*
X148950000Y-48000000D01*
X156181593Y-48000000D01*
X156291968Y-48554891D01*
X156606288Y-49025305D01*
X157076702Y-49339625D01*
X157631593Y-49450000D01*
X157688407Y-49450000D01*
X158243298Y-49339625D01*
X158713712Y-49025305D01*
X159028032Y-48554891D01*
X159138407Y-48000000D01*
X159028032Y-47445109D01*
X158713712Y-46974695D01*
X158243298Y-46660375D01*
X157688407Y-46550000D01*
X157631593Y-46550000D01*
X157076702Y-46660375D01*
X156606288Y-46974695D01*
X156291968Y-47445109D01*
X156181593Y-48000000D01*
X148950000Y-48000000D01*
X148950251Y-47712843D01*
X148729967Y-47179714D01*
X148322431Y-46771467D01*
X147789688Y-46550252D01*
X147212843Y-46549749D01*
X146679714Y-46770033D01*
X146271467Y-47177569D01*
X146050252Y-47710312D01*
X146049749Y-48287157D01*
X138956287Y-48287157D01*
X139013407Y-48000000D01*
X138903032Y-47445109D01*
X138588712Y-46974695D01*
X138118298Y-46660375D01*
X137563407Y-46550000D01*
X137506593Y-46550000D01*
X136951702Y-46660375D01*
X136481288Y-46974695D01*
X136166968Y-47445109D01*
X136056593Y-48000000D01*
X128825000Y-48000000D01*
X128825251Y-47712843D01*
X128604967Y-47179714D01*
X128197431Y-46771467D01*
X127664688Y-46550252D01*
X127087843Y-46549749D01*
X126554714Y-46770033D01*
X126146467Y-47177569D01*
X125925252Y-47710312D01*
X125924749Y-48287157D01*
X125725000Y-48287157D01*
X125725000Y-44000000D01*
X125861593Y-44000000D01*
X125971968Y-44554891D01*
X126286288Y-45025305D01*
X126756702Y-45339625D01*
X127311593Y-45450000D01*
X127368407Y-45450000D01*
X127923298Y-45339625D01*
X128393712Y-45025305D01*
X128708032Y-44554891D01*
X128761287Y-44287157D01*
X136049749Y-44287157D01*
X136270033Y-44820286D01*
X136677569Y-45228533D01*
X137210312Y-45449748D01*
X137787157Y-45450251D01*
X138320286Y-45229967D01*
X138728533Y-44822431D01*
X138949748Y-44289688D01*
X138950000Y-44000000D01*
X146121593Y-44000000D01*
X146231968Y-44554891D01*
X146546288Y-45025305D01*
X147016702Y-45339625D01*
X147571593Y-45450000D01*
X147628407Y-45450000D01*
X148183298Y-45339625D01*
X148653712Y-45025305D01*
X148968032Y-44554891D01*
X149021287Y-44287157D01*
X156309749Y-44287157D01*
X156530033Y-44820286D01*
X156937569Y-45228533D01*
X157470312Y-45449748D01*
X158047157Y-45450251D01*
X158580286Y-45229967D01*
X158988533Y-44822431D01*
X159209748Y-44289688D01*
X159210251Y-43712843D01*
X158989967Y-43179714D01*
X158582431Y-42771467D01*
X158049688Y-42550252D01*
X157472843Y-42549749D01*
X156939714Y-42770033D01*
X156531467Y-43177569D01*
X156310252Y-43710312D01*
X156309749Y-44287157D01*
X149021287Y-44287157D01*
X149078407Y-44000000D01*
X148968032Y-43445109D01*
X148653712Y-42974695D01*
X148183298Y-42660375D01*
X147628407Y-42550000D01*
X147571593Y-42550000D01*
X147016702Y-42660375D01*
X146546288Y-42974695D01*
X146231968Y-43445109D01*
X146121593Y-44000000D01*
X138950000Y-44000000D01*
X138950251Y-43712843D01*
X138729967Y-43179714D01*
X138322431Y-42771467D01*
X137789688Y-42550252D01*
X137212843Y-42549749D01*
X136679714Y-42770033D01*
X136271467Y-43177569D01*
X136050252Y-43710312D01*
X136049749Y-44287157D01*
X128761287Y-44287157D01*
X128818407Y-44000000D01*
X128708032Y-43445109D01*
X128393712Y-42974695D01*
X127923298Y-42660375D01*
X127368407Y-42550000D01*
X127311593Y-42550000D01*
X126756702Y-42660375D01*
X126286288Y-42974695D01*
X125971968Y-43445109D01*
X125861593Y-44000000D01*
X125725000Y-44000000D01*
X125725000Y-35886177D01*
X128049662Y-35886177D01*
X128345906Y-36603143D01*
X128893971Y-37152166D01*
X129610419Y-37449661D01*
X130386177Y-37450338D01*
X131103143Y-37154094D01*
X131652166Y-36606029D01*
X131949661Y-35889581D01*
X131950338Y-35113823D01*
X131654094Y-34396857D01*
X131457581Y-34200000D01*
X133037266Y-34200000D01*
X133037266Y-36800000D01*
X133082590Y-37040876D01*
X133224947Y-37262105D01*
X133442159Y-37410520D01*
X133700000Y-37462734D01*
X136300000Y-37462734D01*
X136540876Y-37417410D01*
X136762105Y-37275053D01*
X136910520Y-37057841D01*
X136962734Y-36800000D01*
X136962734Y-35886177D01*
X148049662Y-35886177D01*
X148345906Y-36603143D01*
X148893971Y-37152166D01*
X149610419Y-37449661D01*
X150386177Y-37450338D01*
X151103143Y-37154094D01*
X151652166Y-36606029D01*
X151949661Y-35889581D01*
X151950338Y-35113823D01*
X151654094Y-34396857D01*
X151457581Y-34200000D01*
X153037266Y-34200000D01*
X153037266Y-36800000D01*
X153082590Y-37040876D01*
X153224947Y-37262105D01*
X153442159Y-37410520D01*
X153700000Y-37462734D01*
X156300000Y-37462734D01*
X156540876Y-37417410D01*
X156762105Y-37275053D01*
X156910520Y-37057841D01*
X156962734Y-36800000D01*
X156962734Y-34200000D01*
X156917410Y-33959124D01*
X156775053Y-33737895D01*
X156557841Y-33589480D01*
X156300000Y-33537266D01*
X153700000Y-33537266D01*
X153459124Y-33582590D01*
X153237895Y-33724947D01*
X153089480Y-33942159D01*
X153037266Y-34200000D01*
X151457581Y-34200000D01*
X151106029Y-33847834D01*
X150389581Y-33550339D01*
X149613823Y-33549662D01*
X148896857Y-33845906D01*
X148347834Y-34393971D01*
X148050339Y-35110419D01*
X148049662Y-35886177D01*
X136962734Y-35886177D01*
X136962734Y-34200000D01*
X136917410Y-33959124D01*
X136775053Y-33737895D01*
X136557841Y-33589480D01*
X136300000Y-33537266D01*
X133700000Y-33537266D01*
X133459124Y-33582590D01*
X133237895Y-33724947D01*
X133089480Y-33942159D01*
X133037266Y-34200000D01*
X131457581Y-34200000D01*
X131106029Y-33847834D01*
X130389581Y-33550339D01*
X129613823Y-33549662D01*
X128896857Y-33845906D01*
X128347834Y-34393971D01*
X128050339Y-35110419D01*
X128049662Y-35886177D01*
X125725000Y-35886177D01*
X125725000Y-30725000D01*
X169275000Y-30725000D01*
X169275000Y-74275000D01*
D20*
G36*
X157850000Y-58350000D02*
X153000000Y-58350000D01*
X152941642Y-58361818D01*
X152892479Y-58395409D01*
X152860258Y-58445481D01*
X152850000Y-58500000D01*
X152850000Y-59513552D01*
X152747237Y-58996929D01*
X152454594Y-58558958D01*
X152016623Y-58266315D01*
X151500000Y-58163552D01*
X150983377Y-58266315D01*
X150545406Y-58558958D01*
X150252763Y-58996929D01*
X150150000Y-59513552D01*
X150150000Y-59566448D01*
X150252763Y-60083071D01*
X150545406Y-60521042D01*
X150983377Y-60813685D01*
X151500000Y-60916448D01*
X152016623Y-60813685D01*
X152454594Y-60521042D01*
X152747237Y-60083071D01*
X152850000Y-59566448D01*
X152850000Y-71850000D01*
X145150000Y-71850000D01*
X145150000Y-53560000D01*
X150141184Y-53560000D01*
X150141184Y-55360000D01*
X150172562Y-55526760D01*
X150271117Y-55679919D01*
X150421495Y-55782668D01*
X150600000Y-55818816D01*
X152400000Y-55818816D01*
X152566760Y-55787438D01*
X152719919Y-55688883D01*
X152822668Y-55538505D01*
X152858816Y-55360000D01*
X152858816Y-53560000D01*
X152827438Y-53393240D01*
X152728883Y-53240081D01*
X152578505Y-53137332D01*
X152400000Y-53101184D01*
X150600000Y-53101184D01*
X150433240Y-53132562D01*
X150280081Y-53231117D01*
X150177332Y-53381495D01*
X150141184Y-53560000D01*
X145150000Y-53560000D01*
X145150000Y-50650000D01*
X157850000Y-50650000D01*
X157850000Y-58350000D01*
X157850000Y-58350000D01*
G37*
X157850000Y-58350000D02*
X153000000Y-58350000D01*
X152941642Y-58361818D01*
X152892479Y-58395409D01*
X152860258Y-58445481D01*
X152850000Y-58500000D01*
X152850000Y-59513552D01*
X152747237Y-58996929D01*
X152454594Y-58558958D01*
X152016623Y-58266315D01*
X151500000Y-58163552D01*
X150983377Y-58266315D01*
X150545406Y-58558958D01*
X150252763Y-58996929D01*
X150150000Y-59513552D01*
X150150000Y-59566448D01*
X150252763Y-60083071D01*
X150545406Y-60521042D01*
X150983377Y-60813685D01*
X151500000Y-60916448D01*
X152016623Y-60813685D01*
X152454594Y-60521042D01*
X152747237Y-60083071D01*
X152850000Y-59566448D01*
X152850000Y-71850000D01*
X145150000Y-71850000D01*
X145150000Y-53560000D01*
X150141184Y-53560000D01*
X150141184Y-55360000D01*
X150172562Y-55526760D01*
X150271117Y-55679919D01*
X150421495Y-55782668D01*
X150600000Y-55818816D01*
X152400000Y-55818816D01*
X152566760Y-55787438D01*
X152719919Y-55688883D01*
X152822668Y-55538505D01*
X152858816Y-55360000D01*
X152858816Y-53560000D01*
X152827438Y-53393240D01*
X152728883Y-53240081D01*
X152578505Y-53137332D01*
X152400000Y-53101184D01*
X150600000Y-53101184D01*
X150433240Y-53132562D01*
X150280081Y-53231117D01*
X150177332Y-53381495D01*
X150141184Y-53560000D01*
X145150000Y-53560000D01*
X145150000Y-50650000D01*
X157850000Y-50650000D01*
X157850000Y-58350000D01*
G36*
X137104614Y-58350000D02*
X133000000Y-58350000D01*
X132941642Y-58361818D01*
X132892479Y-58395409D01*
X132860258Y-58445481D01*
X132850000Y-58500000D01*
X132850000Y-58529070D01*
X132516623Y-58306315D01*
X132000000Y-58203552D01*
X131483377Y-58306315D01*
X131045406Y-58598958D01*
X130752763Y-59036929D01*
X130650000Y-59553552D01*
X130650000Y-59606448D01*
X130752763Y-60123071D01*
X131045406Y-60561042D01*
X131483377Y-60853685D01*
X132000000Y-60956448D01*
X132516623Y-60853685D01*
X132850000Y-60630930D01*
X132850000Y-74475000D01*
X125525000Y-74475000D01*
X125525000Y-53600000D01*
X130641184Y-53600000D01*
X130641184Y-55400000D01*
X130672562Y-55566760D01*
X130771117Y-55719919D01*
X130921495Y-55822668D01*
X131100000Y-55858816D01*
X132900000Y-55858816D01*
X133066760Y-55827438D01*
X133219919Y-55728883D01*
X133322668Y-55578505D01*
X133358816Y-55400000D01*
X133358816Y-53600000D01*
X133327438Y-53433240D01*
X133228883Y-53280081D01*
X133078505Y-53177332D01*
X132900000Y-53141184D01*
X131100000Y-53141184D01*
X130933240Y-53172562D01*
X130780081Y-53271117D01*
X130677332Y-53421495D01*
X130641184Y-53600000D01*
X125525000Y-53600000D01*
X125525000Y-50650000D01*
X137345239Y-50650000D01*
X137104614Y-58350000D01*
X137104614Y-58350000D01*
G37*
X137104614Y-58350000D02*
X133000000Y-58350000D01*
X132941642Y-58361818D01*
X132892479Y-58395409D01*
X132860258Y-58445481D01*
X132850000Y-58500000D01*
X132850000Y-58529070D01*
X132516623Y-58306315D01*
X132000000Y-58203552D01*
X131483377Y-58306315D01*
X131045406Y-58598958D01*
X130752763Y-59036929D01*
X130650000Y-59553552D01*
X130650000Y-59606448D01*
X130752763Y-60123071D01*
X131045406Y-60561042D01*
X131483377Y-60853685D01*
X132000000Y-60956448D01*
X132516623Y-60853685D01*
X132850000Y-60630930D01*
X132850000Y-74475000D01*
X125525000Y-74475000D01*
X125525000Y-53600000D01*
X130641184Y-53600000D01*
X130641184Y-55400000D01*
X130672562Y-55566760D01*
X130771117Y-55719919D01*
X130921495Y-55822668D01*
X131100000Y-55858816D01*
X132900000Y-55858816D01*
X133066760Y-55827438D01*
X133219919Y-55728883D01*
X133322668Y-55578505D01*
X133358816Y-55400000D01*
X133358816Y-53600000D01*
X133327438Y-53433240D01*
X133228883Y-53280081D01*
X133078505Y-53177332D01*
X132900000Y-53141184D01*
X131100000Y-53141184D01*
X130933240Y-53172562D01*
X130780081Y-53271117D01*
X130677332Y-53421495D01*
X130641184Y-53600000D01*
X125525000Y-53600000D01*
X125525000Y-50650000D01*
X137345239Y-50650000D01*
X137104614Y-58350000D01*
M02*
